<svg id="icon" height="512" viewBox="0 0 128 128" width="512" xmlns="http://www.w3.org/2000/svg"><path d="m96.728 96.273h-4.364v-14.908h-56.728v14.908h-4.364v-17.09a2.182 2.182 0 0 1 2.182-2.183h61.092a2.182 2.182 0 0 1 2.182 2.182z" fill="#eeefee"/><path d="m61.818 67.183h4.364v30.181h-4.364z" fill="#eeefee"/><path d="m42.181 96.278a8.727 8.727 0 1 1 -8.722-8.733 8.719 8.719 0 0 1 8.722 8.733z" fill="#ef5261"/><path d="m72.727 96.278a8.727 8.727 0 1 1 -8.722-8.733 8.719 8.719 0 0 1 8.722 8.733z" fill="#69b0ee"/><path d="m103.274 96.278a8.727 8.727 0 1 1 -8.722-8.733 8.719 8.719 0 0 1 8.722 8.733z" fill="#2cbfae"/><path d="m87.733 46.728a23.728 23.728 0 1 1 -23.728-23.728 23.733 23.733 0 0 1 23.728 23.728z" fill="#f6c863"/><path d="m64.005 66.092a19.364 19.364 0 1 1 19.364-19.364 19.386 19.386 0 0 1 -19.364 19.364z" fill="#eab54e"/><path d="m64.872 45.21q3.673.755 4.991 2.2a5.611 5.611 0 0 1 1.318 3.932 6.641 6.641 0 0 1 -1.674 4.51 6.319 6.319 0 0 1 -4.636 2.081v2.3h-1.584v-2.271q-6.043-.666-6.458-6.5h2.871q.326 3.7 3.584 4.251v-8.282q-6-1.2-6-5.85a5.664 5.664 0 0 1 1.626-4.221 6.9 6.9 0 0 1 4.377-1.851v-2.282h1.585v2.281q5.273.4 5.791 5.376h-2.888a3.1 3.1 0 0 0 -2.9-3.125zm-1.585-.326v-7.154a3.354 3.354 0 0 0 -3.125 3.629 3.044 3.044 0 0 0 .866 2.414 5.417 5.417 0 0 0 2.259 1.111zm1.585 10.827q3.421-.43 3.421-4.192a3.59 3.59 0 0 0 -.7-2.37 5.342 5.342 0 0 0 -2.725-1.363z" fill="#f6c863"/></svg>