<svg width="504" height="473.47" viewBox="0 0 639 601" fill="none" xmlns="http://www.w3.org/2000/svg">
<path d="M0 600.293H639V5.16252e-05H0V600.293Z" fill="#F9FAFE"/>
<path d="M561.575 372.242C556.006 372.242 550.84 370.621 546.584 367.851C547.472 367.038 548.351 366.197 549.197 365.348L548.616 364.835C547.744 365.708 546.839 366.572 545.926 367.407C539.427 362.899 535.216 355.653 535.216 347.483C535.216 333.808 547.018 322.721 561.575 322.721C576.131 322.721 587.93 333.808 587.93 347.483C587.93 361.158 576.131 372.242 561.575 372.242V372.242ZM553.779 359.156C552.971 360.134 552.127 361.107 551.268 362.052L551.875 362.538C552.741 361.584 553.594 360.603 554.408 359.615L553.779 359.156ZM558.354 353.048C557.648 354.092 556.904 355.137 556.143 356.151L556.795 356.584C557.562 355.56 558.313 354.504 559.028 353.45L558.354 353.048V353.048ZM562.297 346.559C561.696 347.666 561.06 348.771 560.409 349.845L561.099 350.22C561.76 349.134 562.402 348.017 563.009 346.898L562.297 346.559ZM565.575 339.745C565.089 340.895 564.568 342.053 564.022 343.188L564.751 343.497C565.3 342.351 565.827 341.183 566.319 340.021L565.575 339.745ZM568.147 332.674C567.779 333.865 567.377 335.063 566.952 336.234L567.709 336.477C568.137 335.294 568.546 334.085 568.917 332.884L568.147 332.674ZM569.994 325.416C569.747 326.635 569.47 327.862 569.163 329.066L569.939 329.24C570.249 328.025 570.53 326.785 570.779 325.554L569.994 325.416Z" fill="#F5F5FF"/>
<path d="M127.843 212.424C105.636 212.424 87.6333 195.511 87.6333 174.651C87.6333 153.787 105.636 136.874 127.843 136.874C144.631 136.874 159.015 146.539 165.037 160.268H144.421C139.153 160.268 134.868 164.296 134.868 169.242V211.851C132.586 212.229 130.24 212.424 127.843 212.424Z" fill="#F5F5FF"/>
<path d="M266.955 138.339C258.526 138.339 250.579 133.531 247.38 125.694C243.234 115.54 248.636 104.152 259.445 100.257C261.913 99.3681 264.451 98.9448 266.947 98.9448C275.376 98.9448 283.324 103.756 286.522 111.59C290.668 121.747 285.266 133.135 274.457 137.028C271.989 137.919 269.45 138.339 266.955 138.339" fill="#F5F5FF"/>
<path d="M242.502 82.3555C241.229 82.0734 239.924 81.8843 238.622 81.7973L238.678 81.0499C240.023 81.1399 241.371 81.332 242.686 81.6262L242.502 82.3555ZM230.83 82.4666L230.631 81.7402C231.94 81.4221 233.283 81.2029 234.624 81.0889L234.697 81.8363C233.399 81.9473 232.098 82.1604 230.83 82.4666ZM249.733 85.1649C248.621 84.5196 247.445 83.9553 246.237 83.4871L246.543 82.7937C247.789 83.277 249.004 83.8622 250.152 84.5256L249.733 85.1649ZM223.66 85.414L223.227 84.7807C224.358 84.0964 225.56 83.4931 226.8 82.9829L227.119 83.6701C225.919 84.1654 224.755 84.7507 223.66 85.414ZM255.649 89.9702C254.813 89.0308 253.887 88.1454 252.898 87.344L253.421 86.7767C254.442 87.6051 255.398 88.5175 256.262 89.49L255.649 89.9702ZM217.854 90.3365L217.231 89.8682C218.074 88.8777 219.009 87.9443 220.009 87.0979L220.544 87.6531C219.576 88.4755 218.671 89.379 217.854 90.3365V90.3365ZM259.634 96.2944C259.155 95.1478 258.576 94.0343 257.914 92.9807L258.601 92.5995C259.285 93.6861 259.883 94.8386 260.378 96.0212L259.634 96.2944ZM214.006 96.7356L213.257 96.4775C213.724 95.2889 214.298 94.1273 214.961 93.0228L215.657 93.3919C215.014 94.4604 214.459 95.586 214.006 96.7356V96.7356ZM260.817 100.007C260.55 98.8126 260.177 97.621 259.707 96.4714L260.452 96.2013C260.938 97.3899 261.323 98.6205 261.599 99.8541L260.817 100.007ZM212.5 103.951L211.701 103.927C211.745 102.66 211.899 101.388 212.159 100.142L212.943 100.286C212.691 101.493 212.542 102.724 212.5 103.951ZM261.958 107.439L261.165 107.352C261.276 106.466 261.332 105.569 261.332 104.68C261.332 104.344 261.324 104.002 261.309 103.666L262.106 103.633C262.123 103.978 262.131 104.332 262.131 104.68C262.131 105.599 262.073 106.526 261.958 107.439V107.439ZM212.746 111.455C212.357 110.236 212.072 108.985 211.898 107.73L212.69 107.634C212.859 108.849 213.135 110.062 213.511 111.239L212.746 111.455ZM259.74 114.738L259.017 114.42C259.572 113.307 260.035 112.145 260.393 110.966L261.162 111.173C260.792 112.391 260.313 113.589 259.74 114.738V114.738ZM216.261 118.289C215.489 117.254 214.799 116.149 214.212 115.006L214.931 114.678C215.5 115.786 216.167 116.854 216.915 117.86L216.261 118.289ZM255.189 121.008L254.609 120.492C255.507 119.604 256.336 118.637 257.073 117.623L257.733 118.046C256.972 119.094 256.116 120.09 255.189 121.008V121.008ZM221.902 123.722C220.816 122.968 219.788 122.128 218.847 121.222L219.419 120.696C220.33 121.576 221.326 122.389 222.377 123.118L221.902 123.722ZM248.753 125.598L248.379 124.937C249.536 124.361 250.648 123.692 251.686 122.95L252.169 123.551C251.097 124.313 249.948 125.003 248.753 125.598ZM229.082 127.203C227.8 126.807 226.542 126.315 225.343 125.733L225.71 125.066C226.871 125.628 228.089 126.108 229.331 126.489L229.082 127.203ZM241.105 128.047L240.971 127.306C242.254 127.101 243.534 126.798 244.775 126.399L245.033 127.11C243.752 127.519 242.43 127.834 241.105 128.047V128.047ZM236.913 128.377C235.617 128.377 234.308 128.281 233.023 128.092L233.147 127.351C234.391 127.534 235.659 127.627 236.915 127.627H237.061L237.066 128.377H236.913" fill="#9192FF"/>
<path d="M490.548 228.254C489.388 228.212 488.209 228.188 487.049 228.188C486.89 228.188 486.733 228.188 486.573 228.188L486.57 227.438C486.73 227.438 486.893 227.438 487.049 227.438C488.222 227.438 489.411 227.462 490.58 227.507L490.548 228.254V228.254ZM478.64 228.579L478.56 227.831C479.883 227.708 481.228 227.612 482.561 227.546L482.602 228.296C481.283 228.363 479.95 228.456 478.64 228.579ZM498.462 228.909C497.155 228.741 495.826 228.603 494.513 228.495L494.583 227.747C495.909 227.855 497.251 227.996 498.567 228.164L498.462 228.909V228.909ZM470.781 229.659L470.627 228.924C471.934 228.684 473.263 228.471 474.579 228.29L474.698 229.032C473.391 229.212 472.074 229.422 470.781 229.659V229.659ZM506.274 230.253C504.993 229.974 503.683 229.719 502.386 229.494L502.529 228.756C503.839 228.981 505.162 229.239 506.456 229.524L506.274 230.253V230.253ZM463.065 231.436L462.838 230.716C464.113 230.362 465.413 230.031 466.71 229.734L466.899 230.461C465.617 230.758 464.327 231.085 463.065 231.436ZM513.919 232.291C512.667 231.895 511.389 231.526 510.124 231.187L510.341 230.467C511.619 230.806 512.91 231.181 514.172 231.58L513.919 232.291V232.291ZM455.56 233.888L455.262 233.192C456.499 232.727 457.764 232.279 459.02 231.868L459.282 232.58C458.039 232.985 456.786 233.426 455.56 233.888V233.888ZM521.338 235.002C520.131 234.498 518.894 234.014 517.664 233.564L517.952 232.865C519.194 233.321 520.444 233.807 521.661 234.317L521.338 235.002ZM448.355 236.992L447.987 236.325C449.166 235.752 450.377 235.2 451.585 234.678L451.917 235.359C450.722 235.875 449.521 236.425 448.355 236.992ZM528.447 238.363C527.297 237.754 526.115 237.163 524.936 236.605L525.294 235.935C526.485 236.497 527.677 237.094 528.84 237.709L528.447 238.363ZM441.486 240.72L441.051 240.089C442.172 239.414 443.323 238.754 444.473 238.129L444.872 238.781C443.732 239.399 442.594 240.053 441.486 240.72V240.72ZM535.182 242.334C534.099 241.626 532.981 240.933 531.866 240.275L532.291 239.639C533.415 240.302 534.543 241.002 535.639 241.719L535.182 242.334V242.334ZM435.012 245.042L434.52 244.45C435.568 243.679 436.648 242.923 437.731 242.199L438.195 242.809C437.121 243.526 436.051 244.279 435.012 245.042V245.042ZM541.489 246.882C540.486 246.083 539.444 245.294 538.393 244.538L538.879 243.943C539.94 244.706 540.991 245.501 542.007 246.308L541.489 246.882ZM428.999 249.913L428.45 249.37C429.415 248.508 430.418 247.659 431.424 246.843L431.945 247.413C430.948 248.22 429.958 249.061 428.999 249.913V249.913ZM547.314 251.96C546.39 251.075 545.432 250.198 544.467 249.355L545.01 248.806C545.985 249.655 546.949 250.54 547.886 251.435L547.314 251.96V251.96ZM423.491 255.295L422.891 254.803C423.769 253.86 424.68 252.924 425.603 252.023L426.178 252.545C425.264 253.437 424.36 254.361 423.491 255.295ZM552.605 257.525C551.774 256.564 550.908 255.607 550.029 254.683L550.627 254.184C551.512 255.118 552.387 256.081 553.224 257.051L552.605 257.525V257.525ZM418.542 261.139L417.897 260.701C418.673 259.689 419.491 258.678 420.319 257.696L420.945 258.164C420.124 259.134 419.315 260.136 418.542 261.139V261.139ZM557.317 263.528C556.586 262.498 555.819 261.472 555.036 260.475L555.678 260.028C556.471 261.037 557.244 262.072 557.982 263.111L557.317 263.528V263.528ZM414.197 267.397L413.51 267.019C414.184 265.938 414.897 264.861 415.625 263.81L416.293 264.221C415.571 265.26 414.865 266.328 414.197 267.397ZM561.407 269.915C560.784 268.829 560.122 267.739 559.442 266.676L560.129 266.289C560.816 267.364 561.483 268.462 562.11 269.558L561.407 269.915ZM410.497 274.015L409.775 273.697C410.337 272.565 410.938 271.428 411.558 270.314L412.264 270.665C411.651 271.767 411.056 272.893 410.497 274.015ZM564.838 276.632C564.327 275.495 563.778 274.354 563.206 273.235L563.928 272.911C564.503 274.039 565.056 275.192 565.573 276.338L564.838 276.632ZM407.478 280.934L406.727 280.684C407.174 279.502 407.657 278.316 408.162 277.158L408.9 277.44C408.401 278.589 407.922 279.763 407.478 280.934ZM567.58 283.626C567.18 282.443 566.749 281.255 566.295 280.093L567.043 279.835C567.503 281.006 567.941 282.206 568.34 283.401L567.58 283.626V283.626ZM405.174 288.086L404.401 287.903C404.724 286.69 405.085 285.469 405.471 284.271L406.235 284.49C405.855 285.676 405.497 286.885 405.174 288.086V288.086ZM569.605 290.841C569.33 289.632 569.021 288.413 568.682 287.213L569.455 287.021C569.794 288.233 570.107 289.464 570.385 290.685L569.605 290.841V290.841ZM403.602 295.404L402.813 295.29C403.014 294.053 403.251 292.804 403.513 291.58L404.299 291.727C404.037 292.939 403.804 294.176 403.602 295.404ZM570.896 298.207C570.743 296.976 570.557 295.734 570.343 294.509L571.132 294.389C571.346 295.623 571.535 296.88 571.688 298.12L570.896 298.207V298.207ZM402.772 302.823L401.976 302.781C402.053 301.53 402.161 300.266 402.302 299.026L403.094 299.105C402.957 300.332 402.848 301.584 402.772 302.823ZM571.446 305.651C571.417 304.411 571.356 303.157 571.263 301.923L572.059 301.869C572.152 303.115 572.216 304.381 572.244 305.633L571.446 305.651ZM401.883 310.315C401.848 309.385 401.829 308.436 401.829 307.497C401.829 307.179 401.832 306.863 401.835 306.545L402.634 306.554C402.631 306.869 402.628 307.182 402.628 307.497C402.628 308.427 402.647 309.367 402.679 310.288L401.883 310.315V310.315ZM572.174 311.261L571.378 311.228C571.439 309.994 571.468 308.739 571.468 307.497H572.267C572.267 308.751 572.238 310.018 572.174 311.261V311.261ZM402.532 317.825C402.363 316.588 402.222 315.328 402.113 314.076L402.909 314.016C403.018 315.253 403.155 316.504 403.324 317.729L402.532 317.825V317.825ZM571.43 318.764L570.64 318.659C570.822 317.435 570.979 316.189 571.1 314.949L571.896 315.021C571.771 316.27 571.615 317.528 571.43 318.764V318.764ZM403.931 325.241C403.637 324.026 403.372 322.783 403.139 321.547L403.925 321.418C404.155 322.642 404.42 323.873 404.711 325.076L403.931 325.241V325.241ZM569.937 326.166L569.161 325.992C569.468 324.788 569.746 323.561 569.992 322.342L570.778 322.48C570.529 323.711 570.247 324.95 569.937 326.166ZM406.069 332.502C405.654 331.313 405.264 330.098 404.909 328.897L405.679 328.696C406.031 329.888 406.417 331.088 406.829 332.268L406.069 332.502V332.502ZM567.707 333.402L566.95 333.159C567.375 331.989 567.778 330.791 568.145 329.6L568.915 329.81C568.544 331.01 568.136 332.22 567.707 333.402ZM408.928 339.535C408.395 338.388 407.887 337.217 407.411 336.053L408.158 335.786C408.628 336.938 409.133 338.1 409.66 339.231L408.928 339.535ZM564.749 340.423L564.02 340.114C564.567 338.979 565.087 337.821 565.573 336.671L566.318 336.947C565.826 338.109 565.298 339.276 564.749 340.423ZM412.478 346.273C411.833 345.18 411.206 344.061 410.619 342.941L411.334 342.611C411.916 343.719 412.536 344.829 413.175 345.91L412.478 346.273ZM561.097 347.146L560.407 346.771C561.059 345.697 561.694 344.592 562.295 343.484L563.008 343.824C562.401 344.943 561.758 346.06 561.097 347.146ZM416.689 352.675C415.938 351.646 415.203 350.586 414.504 349.52L415.181 349.127C415.874 350.181 416.603 351.231 417.347 352.252L416.689 352.675V352.675ZM556.793 353.509L556.141 353.077C556.902 352.063 557.646 351.018 558.352 349.974L559.027 350.376C558.311 351.429 557.56 352.486 556.793 353.509V353.509ZM421.52 358.681C420.67 357.721 419.83 356.727 419.028 355.734L419.667 355.28C420.459 356.265 421.29 357.249 422.137 358.201L421.52 358.681ZM551.873 359.464L551.266 358.978C552.125 358.033 552.969 357.06 553.777 356.082L554.407 356.541C553.592 357.528 552.739 358.51 551.873 359.464ZM426.932 364.24C425.99 363.354 425.054 362.439 424.159 361.52L424.747 361.013C425.635 361.926 426.562 362.832 427.498 363.708L426.932 364.24ZM546.384 364.96L545.828 364.42C546.774 363.558 547.71 362.664 548.614 361.761L549.196 362.274C548.285 363.186 547.339 364.09 546.384 364.96ZM432.878 369.3C431.849 368.502 430.827 367.673 429.843 366.833L430.38 366.278C431.354 367.109 432.367 367.932 433.386 368.721L432.878 369.3ZM540.374 369.946L539.876 369.36C540.901 368.586 541.924 367.775 542.911 366.956L543.441 367.517C542.441 368.346 541.409 369.162 540.374 369.946V369.946ZM439.303 373.817C438.204 373.118 437.102 372.38 436.035 371.629L436.514 371.029C437.572 371.773 438.661 372.503 439.751 373.196L439.303 373.817ZM533.898 374.382L533.457 373.754C534.562 373.07 535.658 372.356 536.719 371.629L537.192 372.236C536.118 372.968 535.013 373.691 533.898 374.382ZM446.153 377.749C444.987 377.149 443.818 376.513 442.68 375.858L443.096 375.219C444.224 375.868 445.383 376.498 446.54 377.092L446.153 377.749V377.749ZM527.009 378.224L526.636 377.56C527.799 376.978 528.962 376.366 530.093 375.732L530.502 376.378C529.358 377.017 528.185 377.635 527.009 378.224ZM453.374 381.06C452.147 380.565 450.92 380.034 449.722 379.484L450.074 378.812C451.259 379.355 452.476 379.88 453.69 380.37L453.374 381.06V381.06ZM519.776 381.435L519.469 380.742C520.68 380.271 521.897 379.76 523.092 379.232L523.434 379.911C522.23 380.445 520.996 380.958 519.776 381.435ZM460.902 383.713C459.633 383.329 458.355 382.912 457.103 382.471L457.384 381.768C458.624 382.204 459.892 382.618 461.144 382.999L460.902 383.713V383.713ZM512.242 383.996L512.006 383.278C513.268 382.912 514.536 382.513 515.773 382.093L516.047 382.798C514.795 383.224 513.517 383.626 512.242 383.996ZM468.643 385.679C467.343 385.412 466.03 385.109 464.745 384.782L464.956 384.059C466.228 384.383 467.525 384.68 468.812 384.947L468.643 385.679V385.679ZM504.478 385.877L504.315 385.142C505.609 384.89 506.91 384.605 508.184 384.296L508.383 385.022C507.098 385.334 505.785 385.622 504.478 385.877ZM476.548 386.949C475.228 386.799 473.892 386.613 472.579 386.403L472.713 385.664C474.017 385.871 475.337 386.055 476.643 386.205L476.548 386.949ZM496.558 387.06L496.468 386.316C497.782 386.178 499.104 386.01 500.408 385.814L500.532 386.556C499.219 386.751 497.881 386.922 496.558 387.06ZM484.541 387.519C483.212 387.483 481.864 387.417 480.538 387.321L480.599 386.574C481.912 386.667 483.247 386.733 484.567 386.769L484.541 387.519V387.519ZM488.554 387.54L488.542 386.79C489.864 386.769 491.2 386.718 492.51 386.64L492.561 387.387C491.238 387.468 489.89 387.519 488.554 387.54" fill="#9192FF"/>
<path d="M146.604 196.08C145.295 195.972 143.964 195.903 142.646 195.882L142.66 195.132C143.996 195.156 145.347 195.222 146.674 195.333L146.604 196.08ZM134.736 196.278L134.637 195.534C135.958 195.381 137.305 195.267 138.64 195.201L138.683 195.948C137.366 196.017 136.039 196.125 134.736 196.278ZM154.423 197.263C153.143 196.981 151.835 196.738 150.536 196.54L150.663 195.798C151.981 195.999 153.308 196.245 154.606 196.534L154.423 197.263ZM126.968 197.731L126.756 197.008C128.042 196.675 129.358 196.383 130.668 196.137L130.824 196.873C129.532 197.116 128.235 197.404 126.968 197.731ZM161.985 199.493C160.76 199.037 159.501 198.62 158.244 198.25L158.483 197.533C159.759 197.908 161.036 198.334 162.278 198.794L161.985 199.493ZM119.507 200.213L119.187 199.529C120.408 199.025 121.664 198.559 122.921 198.139L123.187 198.848C121.949 199.259 120.71 199.718 119.507 200.213V200.213ZM169.129 202.723C167.986 202.107 166.805 201.522 165.619 200.988L165.966 200.309C167.169 200.856 168.367 201.447 169.526 202.071L169.129 202.723ZM112.504 203.68L112.082 203.041C113.215 202.38 114.387 201.747 115.567 201.165L115.94 201.828C114.777 202.404 113.62 203.026 112.504 203.68V203.68ZM175.705 206.877C174.668 206.114 173.588 205.379 172.496 204.689L172.942 204.067C174.05 204.767 175.145 205.514 176.197 206.285L175.705 206.877ZM106.095 208.047L105.581 207.474C106.602 206.666 107.667 205.886 108.747 205.148L109.217 205.757C108.151 206.48 107.101 207.255 106.095 208.047V208.047ZM181.583 211.868C180.672 210.977 179.715 210.103 178.739 209.275L179.275 208.716C180.265 209.56 181.236 210.445 182.16 211.349L181.583 211.868ZM100.41 213.231L99.8144 212.732C100.704 211.796 101.64 210.881 102.598 210.007L103.154 210.544C102.21 211.406 101.287 212.309 100.41 213.231ZM186.646 217.592C185.879 216.586 185.064 215.596 184.223 214.644L184.838 214.167C185.691 215.131 186.517 216.136 187.295 217.154L186.646 217.592ZM95.566 219.123L94.9005 218.708C95.6389 217.664 96.4274 216.631 97.244 215.638L97.8763 216.097C97.0709 217.076 96.2935 218.093 95.566 219.123ZM190.787 223.931C190.18 222.832 189.525 221.743 188.837 220.692L189.518 220.299C190.215 221.368 190.881 222.472 191.495 223.586L190.787 223.931ZM91.6652 225.606L90.9435 225.285C91.5151 224.153 92.1384 223.022 92.7963 221.929L93.4918 222.298C92.8432 223.376 92.2285 224.489 91.6652 225.606V225.606ZM193.917 230.756C193.485 229.592 193.003 228.424 192.483 227.29L193.216 226.992C193.744 228.145 194.233 229.328 194.671 230.51L193.917 230.756ZM88.7949 232.551L88.0313 232.329C88.4239 231.128 88.8683 229.928 89.3517 228.757L90.0962 229.03C89.6198 230.183 89.1818 231.369 88.7949 232.551ZM195.972 237.942C195.723 236.729 195.424 235.508 195.083 234.313L195.854 234.121C196.2 235.331 196.504 236.57 196.756 237.801L195.972 237.942ZM87.021 239.803L86.2315 239.689C86.4363 238.446 86.6916 237.2 86.9903 235.979L87.7686 236.147C87.4744 237.351 87.2229 238.581 87.021 239.803ZM196.909 245.331C196.847 244.092 196.737 242.843 196.581 241.619L197.374 241.532C197.532 242.774 197.644 244.038 197.707 245.295L196.909 245.331ZM86.3686 247.216L85.5698 247.207C85.5855 245.953 85.6487 244.683 85.7583 243.438L86.5542 243.498C86.4462 244.728 86.3839 245.98 86.3686 247.216ZM197.629 251.602L196.832 251.551C196.925 250.32 196.972 249.068 196.972 247.829H197.771C197.771 249.083 197.723 250.353 197.629 251.602ZM86.0449 254.744C85.8718 253.501 85.744 252.238 85.665 250.983L86.4625 250.941C86.5401 252.175 86.666 253.423 86.8366 254.645L86.0449 254.744ZM196.491 259.075L195.71 258.916C195.989 257.71 196.226 256.476 196.412 255.251L197.203 255.356C197.014 256.599 196.774 257.851 196.491 259.075V259.075ZM87.6587 262.14C87.297 260.93 86.9779 259.697 86.7098 258.469L87.4926 258.319C87.7565 259.528 88.0709 260.744 88.4274 261.936L87.6587 262.14ZM194.222 266.315L193.474 266.054C193.936 264.895 194.359 263.706 194.73 262.521L195.496 262.734C195.119 263.935 194.691 265.141 194.222 266.315V266.315ZM90.3866 269.235C89.8441 268.089 89.3396 266.912 88.8872 265.735L89.6383 265.48C90.0844 266.639 90.5815 267.8 91.1163 268.929L90.3866 269.235ZM190.864 273.182L190.165 272.822C190.8 271.735 191.4 270.616 191.949 269.493L192.675 269.805C192.118 270.946 191.509 272.084 190.864 273.182V273.182ZM94.1692 275.886C93.458 274.827 92.7787 273.728 92.1506 272.624L92.8551 272.27C93.4742 273.359 94.1439 274.443 94.8452 275.487L94.1692 275.886ZM186.497 279.524L185.859 279.071C186.652 278.084 187.416 277.057 188.131 276.019L188.801 276.427C188.076 277.48 187.301 278.522 186.497 279.524V279.524ZM98.9262 281.967C98.0603 281.013 97.2213 280.016 96.4319 279.008L97.0757 278.564C97.8536 279.557 98.6811 280.542 99.5345 281.484L98.9262 281.967ZM181.213 285.215L180.65 284.681C181.584 283.81 182.496 282.895 183.361 281.964L183.963 282.457C183.086 283.402 182.16 284.33 181.213 285.215ZM104.557 287.355C103.557 286.527 102.576 285.65 101.639 284.756L102.209 284.231C103.132 285.113 104.1 285.974 105.086 286.794L104.557 287.355ZM175.125 290.14L174.649 289.537C175.704 288.799 176.745 288.015 177.741 287.211L178.263 287.778C177.252 288.598 176.196 289.39 175.125 290.14ZM110.947 291.935C109.831 291.248 108.727 290.513 107.665 289.753L108.149 289.156C109.197 289.906 110.285 290.63 111.385 291.308L110.947 291.935ZM168.355 294.198L167.975 293.541C169.13 292.953 170.278 292.317 171.388 291.65L171.818 292.284C170.692 292.959 169.527 293.604 168.355 294.198V294.198ZM117.972 295.615C116.762 295.084 115.556 294.505 114.389 293.895L114.778 293.238C115.929 293.841 117.117 294.412 118.309 294.934L117.972 295.615ZM161.041 297.305L160.765 296.603C161.997 296.176 163.23 295.702 164.428 295.192L164.758 295.876C163.542 296.393 162.291 296.876 161.041 297.305ZM125.489 298.307C124.209 297.947 122.926 297.536 121.678 297.089L121.962 296.387C123.193 296.828 124.457 297.233 125.719 297.59L125.489 298.307ZM153.319 299.394L153.154 298.662C154.441 298.407 155.734 298.103 156.999 297.761L157.22 298.482C155.937 298.83 154.624 299.136 153.319 299.394ZM133.331 299.955C132.007 299.769 130.677 299.538 129.378 299.265L129.552 298.533C130.833 298.803 132.144 299.031 133.448 299.214L133.331 299.955ZM145.359 300.42L145.308 299.673C146.62 299.592 147.946 299.466 149.25 299.298L149.359 300.042C148.036 300.213 146.691 300.339 145.359 300.42ZM141.341 300.532C140 300.526 138.649 300.472 137.325 300.378L137.386 299.628C138.691 299.724 140.023 299.775 141.345 299.781L141.341 300.532Z" fill="#9192FF"/>
<path d="M366.281 99.0327C359.179 99.0327 353.402 104.459 353.402 111.132C353.402 117.801 359.179 123.231 366.281 123.231C373.383 123.231 379.16 117.801 379.16 111.132C379.16 104.459 373.383 99.0327 366.281 99.0327ZM366.281 123.792C358.849 123.792 352.801 118.113 352.801 111.132C352.801 104.15 358.849 98.4684 366.281 98.4684C373.713 98.4684 379.758 104.15 379.758 111.132C379.758 118.113 373.713 123.792 366.281 123.792Z" fill="#9192FF"/>
<path d="M506.504 169.244V397.412C506.504 402.16 502.408 406.011 497.36 406.011H144.41C139.353 406.011 135.256 402.16 135.256 397.412V169.244C135.256 164.496 139.353 160.645 144.41 160.645H497.36C502.408 160.645 506.504 164.496 506.504 169.244Z" fill="#F9FAFE"/>
<path d="M144.443 161.02C139.616 161.02 135.688 164.712 135.688 169.244V397.41C135.688 401.945 139.616 405.634 144.443 405.634H497.393C502.215 405.634 506.141 401.945 506.141 397.41V169.244C506.141 164.712 502.215 161.02 497.393 161.02H144.443ZM497.393 406.384H144.443C139.175 406.384 134.89 402.359 134.89 397.41V169.244C134.89 164.297 139.175 160.27 144.443 160.27H497.393C502.656 160.27 506.937 164.297 506.937 169.244V397.41C506.937 402.359 502.656 406.384 497.393 406.384" fill="#9192FF"/>
<path d="M506.508 169.241V182.777H135.256V169.241C135.256 164.492 139.353 160.641 144.41 160.641H497.361C502.409 160.641 506.508 164.492 506.508 169.241Z" fill="#F9FAFE"/>
<path d="M135.688 182.403H506.141V169.242C506.141 164.709 502.215 161.018 497.394 161.018H144.443C139.615 161.018 135.688 164.709 135.688 169.242V182.403ZM506.94 183.154H134.89V169.242C134.89 164.295 139.175 160.267 144.443 160.267H497.394C502.656 160.267 506.94 164.295 506.94 169.242V183.154Z" fill="#9192FF"/>
<path d="M160.147 171.713C160.147 173.922 158.239 175.714 155.887 175.714C153.534 175.714 151.626 173.922 151.626 171.713C151.626 169.504 153.534 167.712 155.887 167.712C158.239 167.712 160.147 169.504 160.147 171.713Z" fill="#3335CF"/>
<path d="M172.134 167.712C169.784 167.712 167.874 169.507 167.874 171.713C167.874 173.919 169.784 175.714 172.134 175.714C174.483 175.714 176.394 173.919 176.394 171.713C176.394 169.507 174.483 167.712 172.134 167.712Z" fill="#3335CF"/>
<path d="M188.38 168.462C186.471 168.462 184.918 169.921 184.918 171.713C184.918 173.504 186.471 174.963 188.38 174.963C190.288 174.963 191.841 173.504 191.841 171.713C191.841 169.921 190.288 168.462 188.38 168.462ZM188.38 175.714C186.031 175.714 184.12 173.919 184.12 171.713C184.12 169.507 186.031 167.712 188.38 167.712C190.729 167.712 192.64 169.507 192.64 171.713C192.64 173.919 190.729 175.714 188.38 175.714Z" fill="#9192FF"/>
<path d="M214.003 168.007C211.828 168.007 210.059 169.667 210.059 171.711C210.059 173.755 211.828 175.415 214.003 175.415H293.179C295.354 175.415 297.123 173.755 297.123 171.711C297.123 169.667 295.354 168.007 293.179 168.007H214.003ZM293.179 176.165H214.003C211.388 176.165 209.26 174.166 209.26 171.711C209.26 169.253 211.388 167.257 214.003 167.257H293.179C295.794 167.257 297.922 169.253 297.922 171.711C297.922 174.166 295.794 176.165 293.179 176.165Z" fill="#9192FF"/>
<path d="M393.885 288.954C393.885 324.881 362.887 354.01 324.643 354.01C286.398 354.01 255.391 324.881 255.391 288.954C255.391 255.247 282.684 227.529 317.637 224.227L319.947 245.576C296.526 247.788 278.243 266.368 278.243 288.954C278.243 313.034 299.018 332.55 324.643 332.55C350.267 332.55 371.035 313.034 371.035 288.954C371.035 284.752 370.402 280.694 369.22 276.852L391.179 270.894C392.943 276.627 393.885 282.69 393.885 288.954" fill="#9192FF"/>
<path d="M380.56 288.956C380.56 317.966 355.527 341.482 324.648 341.482C293.768 341.482 268.735 317.966 268.735 288.956C268.735 259.947 293.768 236.43 324.648 236.43C355.527 236.43 380.56 259.947 380.56 288.956Z" fill="#F9FAFE"/>
<path d="M324.648 341.482C293.768 341.482 268.735 317.966 268.735 288.956C268.735 259.947 293.768 236.43 324.648 236.43C355.527 236.43 380.56 259.947 380.56 288.956C380.56 317.966 355.527 341.482 324.648 341.482Z" fill="#E8E8FF"/>
<path d="M364.221 288.953C364.221 309.507 346.492 326.168 324.619 326.168C302.747 326.168 285.017 309.507 285.017 288.953C285.017 268.401 302.747 251.737 324.619 251.737C346.492 251.737 364.221 268.401 364.221 288.953Z" fill="#F9FAFE"/>
<path d="M329.141 307.255V312.912H321.489V307.51C316.065 307.207 310.804 305.826 307.549 303.944L311.67 295.174C315.252 297.164 320.022 298.436 324.201 298.436C327.837 298.436 329.141 297.722 329.141 296.497C329.141 292.013 308.145 295.633 308.145 282.327C308.145 276.567 312.593 271.726 321.489 270.552V264.997H329.141V270.45C333.15 270.808 337.061 271.777 340.151 273.41L336.301 282.126C332.553 280.34 329.029 279.476 325.722 279.476C321.974 279.476 320.782 280.493 320.782 281.715C320.782 285.998 341.777 282.429 341.777 295.582C341.777 301.086 337.547 305.88 329.141 307.255" fill="#9192FF"/>
<path d="M571.136 202.668H420.488V116.132H571.136V202.668Z" fill="#F9FAFE"/>
<path d="M420.905 202.294H570.754V116.509H420.905V202.294ZM571.553 203.045H420.106V115.758H571.553V203.045Z" fill="#9192FF"/>
<path d="M448.135 190.086H439.464V175.126H448.135V190.086Z" fill="#D1D1FF"/>
<path d="M465.479 190.086H456.808V168.292H465.479V190.086Z" fill="#D1D1FF"/>
<path d="M482.822 190.086H474.151V173.878H482.822V190.086Z" fill="#D1D1FF"/>
<path d="M500.165 190.086H491.494V162.475H500.165V190.086Z" fill="#D1D1FF"/>
<path d="M517.484 190.086H508.816V155.181H517.484V190.086Z" fill="#D1D1FF"/>
<path d="M534.828 190.086H526.156V144.763H534.828V190.086Z" fill="#D1D1FF"/>
<path d="M552.174 190.086H543.503V128.724H552.174V190.086Z" fill="#D1D1FF"/>
<path d="M446.356 143.333H439.464V136.003H446.356V143.333Z" fill="#D1D1FF"/>
<path d="M503.671 141.271H457.005V139.395H503.671V141.271Z" fill="#D1D1FF"/>
<path d="M435.601 246.544L426.06 221.785C415.281 225.45 407.577 235.151 407.577 246.544C407.577 261.083 420.124 272.87 435.601 272.87C451.08 272.87 463.624 261.083 463.624 246.544C463.624 242.168 462.483 238.047 460.474 234.415L435.601 246.544Z" fill="#EBEBFF"/>
<path d="M464.194 225.036C459.526 216.601 450.145 210.836 439.324 210.836C435.972 210.836 432.761 211.391 429.783 212.405L439.324 237.165L464.194 225.036" fill="#9192FF"/>
<path d="M475.245 390.189H408.948V330.91H475.245V390.189Z" fill="#EBEBFF"/>
<path d="M456.486 349.173H419.344V346.67H456.486V349.173Z" fill="#F9FAFE"/>
<path d="M456.486 356.673H419.344V354.17H456.486V356.673Z" fill="#F9FAFE"/>
<path d="M222.212 309.15H164.562V217.606H222.212V309.15Z" fill="#EBEBFF"/>
<path d="M211.129 263.377H173.321V230.862H211.129V263.377Z" fill="#F9FAFE"/>
<path d="M210.848 263.654L173.041 231.139L173.58 230.584L211.388 263.102L210.848 263.654Z" fill="#EBEBFF"/>
<path d="M173.58 263.654L173.041 263.102L210.848 230.584L211.388 231.139L173.58 263.654Z" fill="#EBEBFF"/>
<path d="M60.3701 336.614H192.231V254.995H60.3701V336.614Z" fill="#F9FAFE"/>
<path d="M60.788 336.259H191.887V255.353H60.788V336.259ZM192.649 336.973H60.0254V254.639H192.649V336.973" fill="#9192FF"/>
<path d="M74.291 316.905L82.8111 301.898L100.384 317.406L112.098 285.389L133.931 307.901L148.308 302.399L174.401 270.382" fill="#F9FAFE"/>
<path d="M100.547 318.076L82.905 302.504L74.6306 317.079L73.9258 316.728L82.6913 301.285L100.194 316.731L111.927 284.666L134.026 307.453L148.044 302.087L174.071 270.151L174.705 270.607L148.547 302.705L133.811 308.345L133.623 308.15L112.244 286.107L100.547 318.076" fill="#9192FF"/>
<path d="M85.0538 301.835C85.0538 302.973 84.0703 303.897 82.8572 303.897C81.6441 303.897 80.6606 302.973 80.6606 301.835C80.6606 300.695 81.6441 299.77 82.8572 299.77C84.0703 299.77 85.0538 300.695 85.0538 301.835Z" fill="#9192FF"/>
<path d="M102.455 317.029C102.455 318.17 101.471 319.094 100.258 319.094C99.0449 319.094 98.0615 318.17 98.0615 317.029C98.0615 315.889 99.0449 314.967 100.258 314.967C101.471 314.967 102.455 315.889 102.455 317.029Z" fill="#9192FF"/>
<path d="M114.401 285.512C114.401 286.653 113.418 287.574 112.204 287.574C110.991 287.574 110.008 286.653 110.008 285.512C110.008 284.372 110.991 283.447 112.204 283.447C113.418 283.447 114.401 284.372 114.401 285.512Z" fill="#9192FF"/>
<path d="M154.289 268.755H98.3765V268.005H154.289V268.755Z" fill="#9192FF"/>
<path d="M464.198 329.949L461.396 302.873L462.188 302.801L464.994 329.877L464.198 329.949" fill="#D1D1FF"/>
</svg>
