<svg width="512" height="534" viewBox="0 0 512 534" fill="none" xmlns="http://www.w3.org/2000/svg">
<path d="M278.63 403.739C372.171 403.739 448 327.909 448 234.369C448 140.829 372.171 65 278.63 65C185.09 65 109.261 140.829 109.261 234.369C109.261 327.909 185.09 403.739 278.63 403.739Z" fill="#3F3D56"/>
<path opacity="0.05" d="M278.631 374.189C355.851 374.189 418.451 311.59 418.451 234.369C418.451 157.149 355.851 94.5496 278.631 94.5496C201.41 94.5496 138.811 157.149 138.811 234.369C138.811 311.59 201.41 374.189 278.631 374.189Z" fill="black"/>
<path opacity="0.05" d="M278.631 348.964C341.919 348.964 393.225 297.658 393.225 234.369C393.225 171.08 341.919 119.775 278.631 119.775C215.342 119.775 164.036 171.08 164.036 234.369C164.036 297.658 215.342 348.964 278.631 348.964Z" fill="black"/>
<path opacity="0.05" d="M278.631 316.531C324.008 316.531 360.793 279.746 360.793 234.369C360.793 188.992 324.008 152.207 278.631 152.207C233.254 152.207 196.469 188.992 196.469 234.369C196.469 279.746 233.254 316.531 278.631 316.531Z" fill="black"/>
<path opacity="0.1" d="M155.887 298.105L178.574 338.545L159.46 295.932L155.887 298.105Z" fill="black"/>
<path d="M59.44 24.14H48.94L46.87 29H42.85L52.3 8H56.14L65.62 29H61.54L59.44 24.14ZM58.15 21.08L54.19 11.9L50.26 21.08H58.15ZM83.4742 6.74V29H79.8742V26.93C79.2542 27.69 78.4842 28.26 77.5642 28.64C76.6642 29.02 75.6642 29.21 74.5642 29.21C73.0242 29.21 71.6342 28.87 70.3942 28.19C69.1742 27.51 68.2142 26.55 67.5142 25.31C66.8142 24.05 66.4642 22.61 66.4642 20.99C66.4642 19.37 66.8142 17.94 67.5142 16.7C68.2142 15.46 69.1742 14.5 70.3942 13.82C71.6342 13.14 73.0242 12.8 74.5642 12.8C75.6242 12.8 76.5942 12.98 77.4742 13.34C78.3542 13.7 79.1042 14.24 79.7242 14.96V6.74H83.4742ZM75.0142 26C75.9142 26 76.7242 25.8 77.4442 25.4C78.1642 24.98 78.7342 24.39 79.1542 23.63C79.5742 22.87 79.7842 21.99 79.7842 20.99C79.7842 19.99 79.5742 19.11 79.1542 18.35C78.7342 17.59 78.1642 17.01 77.4442 16.61C76.7242 16.19 75.9142 15.98 75.0142 15.98C74.1142 15.98 73.3042 16.19 72.5842 16.61C71.8642 17.01 71.2942 17.59 70.8742 18.35C70.4542 19.11 70.2442 19.99 70.2442 20.99C70.2442 21.99 70.4542 22.87 70.8742 23.63C71.2942 24.39 71.8642 24.98 72.5842 25.4C73.3042 25.8 74.1142 26 75.0142 26ZM104.07 6.74V29H100.47V26.93C99.8499 27.69 99.0799 28.26 98.1599 28.64C97.2599 29.02 96.2599 29.21 95.1599 29.21C93.6199 29.21 92.2299 28.87 90.9899 28.19C89.7699 27.51 88.8099 26.55 88.1099 25.31C87.4099 24.05 87.0599 22.61 87.0599 20.99C87.0599 19.37 87.4099 17.94 88.1099 16.7C88.8099 15.46 89.7699 14.5 90.9899 13.82C92.2299 13.14 93.6199 12.8 95.1599 12.8C96.2199 12.8 97.1899 12.98 98.0699 13.34C98.9499 13.7 99.6999 14.24 100.32 14.96V6.74H104.07ZM95.6099 26C96.5099 26 97.3199 25.8 98.0399 25.4C98.7599 24.98 99.3299 24.39 99.7499 23.63C100.17 22.87 100.38 21.99 100.38 20.99C100.38 19.99 100.17 19.11 99.7499 18.35C99.3299 17.59 98.7599 17.01 98.0399 16.61C97.3199 16.19 96.5099 15.98 95.6099 15.98C94.7099 15.98 93.8999 16.19 93.1799 16.61C92.4599 17.01 91.8899 17.59 91.4699 18.35C91.0499 19.11 90.8399 19.99 90.8399 20.99C90.8399 21.99 91.0499 22.87 91.4699 23.63C91.8899 24.39 92.4599 24.98 93.1799 25.4C93.8999 25.8 94.7099 26 95.6099 26ZM117.627 8H121.527V29H117.627V8ZM135.937 12.8C137.957 12.8 139.577 13.39 140.797 14.57C142.017 15.75 142.627 17.5 142.627 19.82V29H138.877V20.3C138.877 18.9 138.547 17.85 137.887 17.15C137.227 16.43 136.287 16.07 135.067 16.07C133.687 16.07 132.597 16.49 131.797 17.33C130.997 18.15 130.597 19.34 130.597 20.9V29H126.847V12.98H130.417V15.05C131.037 14.31 131.817 13.75 132.757 13.37C133.697 12.99 134.757 12.8 135.937 12.8ZM162.091 12.98L155.221 29H151.351L144.481 12.98H148.381L153.361 24.86L158.491 12.98H162.091ZM179.055 21.08C179.055 21.34 179.035 21.71 178.995 22.19H166.425C166.645 23.37 167.215 24.31 168.135 25.01C169.075 25.69 170.235 26.03 171.615 26.03C173.375 26.03 174.825 25.45 175.965 24.29L177.975 26.6C177.255 27.46 176.345 28.11 175.245 28.55C174.145 28.99 172.905 29.21 171.525 29.21C169.765 29.21 168.215 28.86 166.875 28.16C165.535 27.46 164.495 26.49 163.755 25.25C163.035 23.99 162.675 22.57 162.675 20.99C162.675 19.43 163.025 18.03 163.725 16.79C164.445 15.53 165.435 14.55 166.695 13.85C167.955 13.15 169.375 12.8 170.955 12.8C172.515 12.8 173.905 13.15 175.125 13.85C176.365 14.53 177.325 15.5 178.005 16.76C178.705 18 179.055 19.44 179.055 21.08ZM170.955 15.8C169.755 15.8 168.735 16.16 167.895 16.88C167.075 17.58 166.575 18.52 166.395 19.7H175.485C175.325 18.54 174.835 17.6 174.015 16.88C173.195 16.16 172.175 15.8 170.955 15.8ZM187.607 29.21C186.307 29.21 185.037 29.04 183.797 28.7C182.557 28.36 181.567 27.93 180.827 27.41L182.267 24.56C182.987 25.04 183.847 25.43 184.847 25.73C185.867 26.01 186.867 26.15 187.847 26.15C190.087 26.15 191.207 25.56 191.207 24.38C191.207 23.82 190.917 23.43 190.337 23.21C189.777 22.99 188.867 22.78 187.607 22.58C186.287 22.38 185.207 22.15 184.367 21.89C183.547 21.63 182.827 21.18 182.207 20.54C181.607 19.88 181.307 18.97 181.307 17.81C181.307 16.29 181.937 15.08 183.197 14.18C184.477 13.26 186.197 12.8 188.357 12.8C189.457 12.8 190.557 12.93 191.657 13.19C192.757 13.43 193.657 13.76 194.357 14.18L192.917 17.03C191.557 16.23 190.027 15.83 188.327 15.83C187.227 15.83 186.387 16 185.807 16.34C185.247 16.66 184.967 17.09 184.967 17.63C184.967 18.23 185.267 18.66 185.867 18.92C186.487 19.16 187.437 19.39 188.717 19.61C189.997 19.81 191.047 20.04 191.867 20.3C192.687 20.56 193.387 21 193.967 21.62C194.567 22.24 194.867 23.12 194.867 24.26C194.867 25.76 194.217 26.96 192.917 27.86C191.617 28.76 189.847 29.21 187.607 29.21ZM207.727 28.13C207.287 28.49 206.747 28.76 206.107 28.94C205.487 29.12 204.827 29.21 204.127 29.21C202.367 29.21 201.007 28.75 200.047 27.83C199.087 26.91 198.607 25.57 198.607 23.81V16.1H195.967V13.1H198.607V9.44H202.357V13.1H206.647V16.1H202.357V23.72C202.357 24.5 202.547 25.1 202.927 25.52C203.307 25.92 203.857 26.12 204.577 26.12C205.417 26.12 206.117 25.9 206.677 25.46L207.727 28.13ZM231.032 12.8C233.052 12.8 234.652 13.39 235.832 14.57C237.012 15.73 237.602 17.48 237.602 19.82V29H233.852V20.3C233.852 18.9 233.542 17.85 232.922 17.15C232.302 16.43 231.412 16.07 230.252 16.07C228.992 16.07 227.982 16.49 227.222 17.33C226.462 18.15 226.082 19.33 226.082 20.87V29H222.332V20.3C222.332 18.9 222.022 17.85 221.402 17.15C220.782 16.43 219.892 16.07 218.732 16.07C217.452 16.07 216.432 16.48 215.672 17.3C214.932 18.12 214.562 19.31 214.562 20.87V29H210.812V12.98H214.382V15.02C214.982 14.3 215.732 13.75 216.632 13.37C217.532 12.99 218.532 12.8 219.632 12.8C220.832 12.8 221.892 13.03 222.812 13.49C223.752 13.93 224.492 14.59 225.032 15.47C225.692 14.63 226.542 13.98 227.582 13.52C228.622 13.04 229.772 12.8 231.032 12.8ZM257.6 21.08C257.6 21.34 257.58 21.71 257.54 22.19H244.97C245.19 23.37 245.76 24.31 246.68 25.01C247.62 25.69 248.78 26.03 250.16 26.03C251.92 26.03 253.37 25.45 254.51 24.29L256.52 26.6C255.8 27.46 254.89 28.11 253.79 28.55C252.69 28.99 251.45 29.21 250.07 29.21C248.31 29.21 246.76 28.86 245.42 28.16C244.08 27.46 243.04 26.49 242.3 25.25C241.58 23.99 241.22 22.57 241.22 20.99C241.22 19.43 241.57 18.03 242.27 16.79C242.99 15.53 243.98 14.55 245.24 13.85C246.5 13.15 247.92 12.8 249.5 12.8C251.06 12.8 252.45 13.15 253.67 13.85C254.91 14.53 255.87 15.5 256.55 16.76C257.25 18 257.6 19.44 257.6 21.08ZM249.5 15.8C248.3 15.8 247.28 16.16 246.44 16.88C245.62 17.58 245.12 18.52 244.94 19.7H254.03C253.87 18.54 253.38 17.6 252.56 16.88C251.74 16.16 250.72 15.8 249.5 15.8ZM270.292 12.8C272.312 12.8 273.932 13.39 275.152 14.57C276.372 15.75 276.982 17.5 276.982 19.82V29H273.232V20.3C273.232 18.9 272.902 17.85 272.242 17.15C271.582 16.43 270.642 16.07 269.422 16.07C268.042 16.07 266.952 16.49 266.152 17.33C265.352 18.15 264.952 19.34 264.952 20.9V29H261.202V12.98H264.772V15.05C265.392 14.31 266.172 13.75 267.112 13.37C268.052 12.99 269.112 12.8 270.292 12.8ZM291.369 28.13C290.929 28.49 290.389 28.76 289.749 28.94C289.129 29.12 288.469 29.21 287.769 29.21C286.009 29.21 284.649 28.75 283.689 27.83C282.729 26.91 282.249 25.57 282.249 23.81V16.1H279.609V13.1H282.249V9.44H285.999V13.1H290.289V16.1H285.999V23.72C285.999 24.5 286.189 25.1 286.569 25.52C286.949 25.92 287.499 26.12 288.219 26.12C289.059 26.12 289.759 25.9 290.319 25.46L291.369 28.13ZM299.404 29.21C298.104 29.21 296.834 29.04 295.594 28.7C294.354 28.36 293.364 27.93 292.624 27.41L294.064 24.56C294.784 25.04 295.644 25.43 296.644 25.73C297.664 26.01 298.664 26.15 299.644 26.15C301.884 26.15 303.004 25.56 303.004 24.38C303.004 23.82 302.714 23.43 302.134 23.21C301.574 22.99 300.664 22.78 299.404 22.58C298.084 22.38 297.004 22.15 296.164 21.89C295.344 21.63 294.624 21.18 294.004 20.54C293.404 19.88 293.104 18.97 293.104 17.81C293.104 16.29 293.734 15.08 294.994 14.18C296.274 13.26 297.994 12.8 300.154 12.8C301.254 12.8 302.354 12.93 303.454 13.19C304.554 13.43 305.454 13.76 306.154 14.18L304.714 17.03C303.354 16.23 301.824 15.83 300.124 15.83C299.024 15.83 298.184 16 297.604 16.34C297.044 16.66 296.764 17.09 296.764 17.63C296.764 18.23 297.064 18.66 297.664 18.92C298.284 19.16 299.234 19.39 300.514 19.61C301.794 19.81 302.844 20.04 303.664 20.3C304.484 20.56 305.184 21 305.764 21.62C306.364 22.24 306.664 23.12 306.664 24.26C306.664 25.76 306.014 26.96 304.714 27.86C303.414 28.76 301.644 29.21 299.404 29.21ZM327.815 28.13C327.375 28.49 326.835 28.76 326.195 28.94C325.575 29.12 324.915 29.21 324.215 29.21C322.455 29.21 321.095 28.75 320.135 27.83C319.175 26.91 318.695 25.57 318.695 23.81V16.1H316.055V13.1H318.695V9.44H322.445V13.1H326.735V16.1H322.445V23.72C322.445 24.5 322.635 25.1 323.015 25.52C323.395 25.92 323.945 26.12 324.665 26.12C325.505 26.12 326.205 25.9 326.765 25.46L327.815 28.13ZM337.572 29.21C335.952 29.21 334.492 28.86 333.192 28.16C331.892 27.46 330.872 26.49 330.132 25.25C329.412 23.99 329.052 22.57 329.052 20.99C329.052 19.41 329.412 18 330.132 16.76C330.872 15.52 331.892 14.55 333.192 13.85C334.492 13.15 335.952 12.8 337.572 12.8C339.212 12.8 340.682 13.15 341.982 13.85C343.282 14.55 344.292 15.52 345.012 16.76C345.752 18 346.122 19.41 346.122 20.99C346.122 22.57 345.752 23.99 345.012 25.25C344.292 26.49 343.282 27.46 341.982 28.16C340.682 28.86 339.212 29.21 337.572 29.21ZM337.572 26C338.952 26 340.092 25.54 340.992 24.62C341.892 23.7 342.342 22.49 342.342 20.99C342.342 19.49 341.892 18.28 340.992 17.36C340.092 16.44 338.952 15.98 337.572 15.98C336.192 15.98 335.052 16.44 334.152 17.36C333.272 18.28 332.832 19.49 332.832 20.99C332.832 22.49 333.272 23.7 334.152 24.62C335.052 25.54 336.192 26 337.572 26ZM362.949 29.21C361.649 29.21 360.379 29.04 359.139 28.7C357.899 28.36 356.909 27.93 356.169 27.41L357.609 24.56C358.329 25.04 359.189 25.43 360.189 25.73C361.209 26.01 362.209 26.15 363.189 26.15C365.429 26.15 366.549 25.56 366.549 24.38C366.549 23.82 366.259 23.43 365.679 23.21C365.119 22.99 364.209 22.78 362.949 22.58C361.629 22.38 360.549 22.15 359.709 21.89C358.889 21.63 358.169 21.18 357.549 20.54C356.949 19.88 356.649 18.97 356.649 17.81C356.649 16.29 357.279 15.08 358.539 14.18C359.819 13.26 361.539 12.8 363.699 12.8C364.799 12.8 365.899 12.93 366.999 13.19C368.099 13.43 368.999 13.76 369.699 14.18L368.259 17.03C366.899 16.23 365.369 15.83 363.669 15.83C362.569 15.83 361.729 16 361.149 16.34C360.589 16.66 360.309 17.09 360.309 17.63C360.309 18.23 360.609 18.66 361.209 18.92C361.829 19.16 362.779 19.39 364.059 19.61C365.339 19.81 366.389 20.04 367.209 20.3C368.029 20.56 368.729 21 369.309 21.62C369.909 22.24 370.209 23.12 370.209 24.26C370.209 25.76 369.559 26.96 368.259 27.86C366.959 28.76 365.189 29.21 362.949 29.21ZM388.499 21.08C388.499 21.34 388.479 21.71 388.439 22.19H375.869C376.089 23.37 376.659 24.31 377.579 25.01C378.519 25.69 379.679 26.03 381.059 26.03C382.819 26.03 384.269 25.45 385.409 24.29L387.419 26.6C386.699 27.46 385.789 28.11 384.689 28.55C383.589 28.99 382.349 29.21 380.969 29.21C379.209 29.21 377.659 28.86 376.319 28.16C374.979 27.46 373.939 26.49 373.199 25.25C372.479 23.99 372.119 22.57 372.119 20.99C372.119 19.43 372.469 18.03 373.169 16.79C373.889 15.53 374.879 14.55 376.139 13.85C377.399 13.15 378.819 12.8 380.399 12.8C381.959 12.8 383.349 13.15 384.569 13.85C385.809 14.53 386.769 15.5 387.449 16.76C388.149 18 388.499 19.44 388.499 21.08ZM380.399 15.8C379.199 15.8 378.179 16.16 377.339 16.88C376.519 17.58 376.019 18.52 375.839 19.7H384.929C384.769 18.54 384.279 17.6 383.459 16.88C382.639 16.16 381.619 15.8 380.399 15.8ZM407.161 21.08C407.161 21.34 407.141 21.71 407.101 22.19H394.531C394.751 23.37 395.321 24.31 396.241 25.01C397.181 25.69 398.341 26.03 399.721 26.03C401.481 26.03 402.931 25.45 404.071 24.29L406.081 26.6C405.361 27.46 404.451 28.11 403.351 28.55C402.251 28.99 401.011 29.21 399.631 29.21C397.871 29.21 396.321 28.86 394.981 28.16C393.641 27.46 392.601 26.49 391.861 25.25C391.141 23.99 390.781 22.57 390.781 20.99C390.781 19.43 391.131 18.03 391.831 16.79C392.551 15.53 393.541 14.55 394.801 13.85C396.061 13.15 397.481 12.8 399.061 12.8C400.621 12.8 402.011 13.15 403.231 13.85C404.471 14.53 405.431 15.5 406.111 16.76C406.811 18 407.161 19.44 407.161 21.08ZM399.061 15.8C397.861 15.8 396.841 16.16 396.001 16.88C395.181 17.58 394.681 18.52 394.501 19.7H403.591C403.431 18.54 402.941 17.6 402.121 16.88C401.301 16.16 400.281 15.8 399.061 15.8ZM433.754 18.26H437.444V26.63C436.364 27.49 435.104 28.15 433.664 28.61C432.224 29.07 430.744 29.3 429.224 29.3C427.084 29.3 425.154 28.84 423.434 27.92C421.714 26.98 420.364 25.69 419.384 24.05C418.404 22.41 417.914 20.56 417.914 18.5C417.914 16.44 418.404 14.59 419.384 12.95C420.364 11.31 421.714 10.03 423.434 9.11C425.174 8.17 427.124 7.7 429.284 7.7C431.044 7.7 432.644 7.99 434.084 8.57C435.524 9.15 436.734 10 437.714 11.12L435.254 13.52C433.654 11.92 431.724 11.12 429.464 11.12C427.984 11.12 426.664 11.43 425.504 12.05C424.364 12.67 423.464 13.54 422.804 14.66C422.164 15.78 421.844 17.06 421.844 18.5C421.844 19.9 422.164 21.16 422.804 22.28C423.464 23.4 424.364 24.28 425.504 24.92C426.664 25.56 427.974 25.88 429.434 25.88C431.074 25.88 432.514 25.52 433.754 24.8V18.26ZM445.798 15.32C446.878 13.64 448.778 12.8 451.498 12.8V16.37C451.178 16.31 450.888 16.28 450.628 16.28C449.168 16.28 448.028 16.71 447.208 17.57C446.388 18.41 445.978 19.63 445.978 21.23V29H442.228V12.98H445.798V15.32ZM460.711 12.8C463.071 12.8 464.871 13.37 466.111 14.51C467.371 15.63 468.001 17.33 468.001 19.61V29H464.461V27.05C464.001 27.75 463.341 28.29 462.481 28.67C461.641 29.03 460.621 29.21 459.421 29.21C458.221 29.21 457.171 29.01 456.271 28.61C455.371 28.19 454.671 27.62 454.171 26.9C453.691 26.16 453.451 25.33 453.451 24.41C453.451 22.97 453.981 21.82 455.041 20.96C456.121 20.08 457.811 19.64 460.111 19.64H464.251V19.4C464.251 18.28 463.911 17.42 463.231 16.82C462.571 16.22 461.581 15.92 460.261 15.92C459.361 15.92 458.471 16.06 457.591 16.34C456.731 16.62 456.001 17.01 455.401 17.51L453.931 14.78C454.771 14.14 455.781 13.65 456.961 13.31C458.141 12.97 459.391 12.8 460.711 12.8ZM460.201 26.48C461.141 26.48 461.971 26.27 462.691 25.85C463.431 25.41 463.951 24.79 464.251 23.99V22.13H460.381C458.221 22.13 457.141 22.84 457.141 24.26C457.141 24.94 457.411 25.48 457.951 25.88C458.491 26.28 459.241 26.48 460.201 26.48ZM481.694 12.8C483.254 12.8 484.644 13.14 485.864 13.82C487.104 14.5 488.074 15.46 488.774 16.7C489.474 17.94 489.824 19.37 489.824 20.99C489.824 22.61 489.474 24.05 488.774 25.31C488.074 26.55 487.104 27.51 485.864 28.19C484.644 28.87 483.254 29.21 481.694 29.21C479.534 29.21 477.824 28.49 476.564 27.05V34.82H472.814V12.98H476.384V15.08C477.004 14.32 477.764 13.75 478.664 13.37C479.584 12.99 480.594 12.8 481.694 12.8ZM481.274 26C482.654 26 483.784 25.54 484.664 24.62C485.564 23.7 486.014 22.49 486.014 20.99C486.014 19.49 485.564 18.28 484.664 17.36C483.784 16.44 482.654 15.98 481.274 15.98C480.374 15.98 479.564 16.19 478.844 16.61C478.124 17.01 477.554 17.59 477.134 18.35C476.714 19.11 476.504 19.99 476.504 20.99C476.504 21.99 476.714 22.87 477.134 23.63C477.554 24.39 478.124 24.98 478.844 25.4C479.564 25.8 480.374 26 481.274 26ZM502.47 12.8C504.49 12.8 506.11 13.39 507.33 14.57C508.55 15.75 509.16 17.5 509.16 19.82V29H505.41V20.3C505.41 18.9 505.08 17.85 504.42 17.15C503.76 16.43 502.82 16.07 501.6 16.07C500.22 16.07 499.13 16.49 498.33 17.33C497.53 18.15 497.13 19.34 497.13 20.9V29H493.38V6.74H497.13V14.84C497.75 14.18 498.51 13.68 499.41 13.34C500.33 12.98 501.35 12.8 502.47 12.8Z" fill="black"/>
</svg>
