<svg width="593" height="306" viewBox="0 0 593 306" fill="none" xmlns="http://www.w3.org/2000/svg">
<g clip-path="url(#clip0)">
<path d="M467.585 63H123.937C122.628 63.0012 121.373 63.5217 120.447 64.4473C119.522 65.3728 119.001 66.6278 119 67.9368V300.803C119.001 302.112 119.522 303.367 120.447 304.292C121.373 305.218 122.628 305.738 123.937 305.74H467.585C468.299 305.74 469.004 305.585 469.652 305.286C470.3 304.987 470.876 304.55 471.339 304.007C471.378 303.965 471.414 303.919 471.447 303.871C471.741 303.511 471.98 303.108 472.154 302.677C472.403 302.083 472.53 301.446 472.528 300.803V67.9368C472.526 66.6269 472.005 65.3712 471.078 64.4455C470.151 63.5199 468.895 62.9999 467.585 63V63ZM471.118 300.803C471.119 301.492 470.916 302.165 470.535 302.739C470.196 303.244 469.737 303.657 469.199 303.939C468.7 304.197 468.147 304.331 467.585 304.33H123.937C123.002 304.329 122.105 303.957 121.444 303.296C120.783 302.634 120.411 301.738 120.41 300.803V67.9368C120.411 67.0017 120.783 66.1052 121.444 65.444C122.105 64.7828 123.002 64.4108 123.937 64.4097H467.585C468.521 64.4096 469.419 64.781 470.081 65.4423C470.744 66.1036 471.117 67.0008 471.118 67.9368V300.803Z" fill="#3F3D56"/>
<path d="M471.82 82.7864H119.704V84.1976H471.82V82.7864Z" fill="#3F3D56"/>
<path d="M131.7 77.8186C134.038 77.8186 135.934 75.923 135.934 73.5847C135.934 71.2464 134.038 69.3508 131.7 69.3508C129.361 69.3508 127.466 71.2464 127.466 73.5847C127.466 75.923 129.361 77.8186 131.7 77.8186Z" fill="#3F3D56"/>
<path d="M143.872 77.8186C146.21 77.8186 148.105 75.923 148.105 73.5847C148.105 71.2464 146.21 69.3508 143.872 69.3508C141.533 69.3508 139.638 71.2464 139.638 73.5847C139.638 75.923 141.533 77.8186 143.872 77.8186Z" fill="#3F3D56"/>
<path d="M156.044 77.8186C158.383 77.8186 160.278 75.923 160.278 73.5847C160.278 71.2464 158.383 69.3508 156.044 69.3508C153.706 69.3508 151.811 71.2464 151.811 73.5847C151.811 75.923 153.706 77.8186 156.044 77.8186Z" fill="#3F3D56"/>
<path d="M161.49 171.556H149.035C148.36 171.555 147.712 171.286 147.234 170.809C146.757 170.331 146.488 169.684 146.487 169.008V156.553C146.488 155.878 146.757 155.23 147.234 154.752C147.712 154.275 148.36 154.006 149.035 154.005H161.49C162.166 154.006 162.813 154.275 163.291 154.752C163.768 155.23 164.037 155.878 164.038 156.553V169.008C164.037 169.684 163.768 170.331 163.291 170.809C162.813 171.286 162.166 171.555 161.49 171.556Z" fill="#6C63FF"/>
<path d="M161.49 203.826H149.035C148.36 203.825 147.712 203.557 147.234 203.079C146.757 202.601 146.488 201.954 146.487 201.278V188.823C146.488 188.148 146.757 187.5 147.234 187.023C147.712 186.545 148.36 186.276 149.035 186.276H161.49C162.166 186.276 162.813 186.545 163.291 187.023C163.768 187.5 164.037 188.148 164.038 188.823V201.278C164.037 201.954 163.768 202.601 163.291 203.079C162.813 203.557 162.166 203.825 161.49 203.826V203.826Z" fill="#3F3D56"/>
<path d="M161.49 236.096H149.035C148.36 236.096 147.712 235.827 147.234 235.349C146.757 234.872 146.488 234.224 146.487 233.549V221.093C146.488 220.418 146.757 219.77 147.234 219.293C147.712 218.815 148.36 218.546 149.035 218.546H161.49C162.166 218.546 162.813 218.815 163.291 219.293C163.768 219.77 164.037 220.418 164.038 221.093V233.549C164.037 234.224 163.768 234.872 163.291 235.349C162.813 235.827 162.166 236.096 161.49 236.096Z" fill="#CCCCCC"/>
<path d="M243.014 165.328H183.003C182.328 165.328 181.68 165.06 181.202 164.582C180.724 164.104 180.456 163.456 180.456 162.781C180.456 162.105 180.724 161.457 181.202 160.979C181.68 160.501 182.328 160.233 183.003 160.233H243.014C243.69 160.233 244.338 160.501 244.816 160.979C245.294 161.457 245.562 162.105 245.562 162.781C245.562 163.456 245.294 164.104 244.816 164.582C244.338 165.06 243.69 165.328 243.014 165.328V165.328Z" fill="#CCCCCC"/>
<path d="M243.014 197.598H183.003C182.328 197.598 181.68 197.33 181.202 196.852C180.724 196.374 180.456 195.726 180.456 195.051C180.456 194.375 180.724 193.727 181.202 193.249C181.68 192.771 182.328 192.503 183.003 192.503H243.014C243.69 192.503 244.338 192.771 244.816 193.249C245.294 193.727 245.562 194.375 245.562 195.051C245.562 195.726 245.294 196.374 244.816 196.852C244.338 197.33 243.69 197.598 243.014 197.598V197.598Z" fill="#CCCCCC"/>
<path d="M243.014 229.869H183.003C182.328 229.869 181.68 229.6 181.202 229.123C180.724 228.645 180.456 227.997 180.456 227.321C180.456 226.645 180.724 225.997 181.202 225.519C181.68 225.042 182.328 224.773 183.003 224.773H243.014C243.69 224.773 244.338 225.042 244.816 225.519C245.294 225.997 245.562 226.645 245.562 227.321C245.562 227.997 245.294 228.645 244.816 229.123C244.338 229.6 243.69 229.869 243.014 229.869V229.869Z" fill="#CCCCCC"/>
<path d="M451.781 196.183C451.87 194.684 451.921 193.175 451.921 191.654C451.921 171.834 444.048 152.826 430.033 138.811C416.018 124.797 397.01 116.923 377.19 116.923V196.183H451.781Z" fill="#6C63FF"/>
<path d="M371.529 202.977V123.717C356.941 123.716 342.673 127.985 330.482 135.997C318.292 144.008 308.712 155.413 302.926 168.804C297.139 182.195 295.399 196.986 297.918 211.354C300.437 225.723 307.107 239.04 317.104 249.663C327.102 260.286 339.989 267.751 354.179 271.137C368.368 274.523 383.238 273.683 396.955 268.719C410.672 263.755 422.636 254.885 431.373 243.203C440.109 231.521 445.235 217.537 446.119 202.977H371.529Z" fill="#3F3D56"/>
</g>
<path d="M14.152 19.112H5.752L4.096 23H0.88L8.44 6.2H11.512L19.096 23H15.832L14.152 19.112ZM13.12 16.664L9.952 9.32L6.808 16.664H13.12ZM33.3794 5.192V23H30.4994V21.344C30.0034 21.952 29.3874 22.408 28.6514 22.712C27.9314 23.016 27.1314 23.168 26.2514 23.168C25.0194 23.168 23.9074 22.896 22.9154 22.352C21.9394 21.808 21.1714 21.04 20.6114 20.048C20.0514 19.04 19.7714 17.888 19.7714 16.592C19.7714 15.296 20.0514 14.152 20.6114 13.16C21.1714 12.168 21.9394 11.4 22.9154 10.856C23.9074 10.312 25.0194 10.04 26.2514 10.04C27.0994 10.04 27.8754 10.184 28.5794 10.472C29.2834 10.76 29.8834 11.192 30.3794 11.768V5.192H33.3794ZM26.6114 20.6C27.3314 20.6 27.9794 20.44 28.5554 20.12C29.1314 19.784 29.5874 19.312 29.9234 18.704C30.2594 18.096 30.4274 17.392 30.4274 16.592C30.4274 15.792 30.2594 15.088 29.9234 14.48C29.5874 13.872 29.1314 13.408 28.5554 13.088C27.9794 12.752 27.3314 12.584 26.6114 12.584C25.8914 12.584 25.2434 12.752 24.6674 13.088C24.0914 13.408 23.6354 13.872 23.2994 14.48C22.9634 15.088 22.7954 15.792 22.7954 16.592C22.7954 17.392 22.9634 18.096 23.2994 18.704C23.6354 19.312 24.0914 19.784 24.6674 20.12C25.2434 20.44 25.8914 20.6 26.6114 20.6ZM49.8559 5.192V23H46.9759V21.344C46.4799 21.952 45.8639 22.408 45.1279 22.712C44.4079 23.016 43.6079 23.168 42.7279 23.168C41.4959 23.168 40.3839 22.896 39.3919 22.352C38.4159 21.808 37.6479 21.04 37.0879 20.048C36.5279 19.04 36.2479 17.888 36.2479 16.592C36.2479 15.296 36.5279 14.152 37.0879 13.16C37.6479 12.168 38.4159 11.4 39.3919 10.856C40.3839 10.312 41.4959 10.04 42.7279 10.04C43.5759 10.04 44.3519 10.184 45.0559 10.472C45.7599 10.76 46.3599 11.192 46.8559 11.768V5.192H49.8559ZM43.0879 20.6C43.8079 20.6 44.4559 20.44 45.0319 20.12C45.6079 19.784 46.0639 19.312 46.3999 18.704C46.7359 18.096 46.9039 17.392 46.9039 16.592C46.9039 15.792 46.7359 15.088 46.3999 14.48C46.0639 13.872 45.6079 13.408 45.0319 13.088C44.4559 12.752 43.8079 12.584 43.0879 12.584C42.3679 12.584 41.7199 12.752 41.1439 13.088C40.5679 13.408 40.1119 13.872 39.7759 14.48C39.4399 15.088 39.2719 15.792 39.2719 16.592C39.2719 17.392 39.4399 18.096 39.7759 18.704C40.1119 19.312 40.5679 19.784 41.1439 20.12C41.7199 20.44 42.3679 20.6 43.0879 20.6ZM60.7013 6.2H63.8213V23H60.7013V6.2ZM75.3494 10.04C76.9654 10.04 78.2614 10.512 79.2374 11.456C80.2134 12.4 80.7014 13.8 80.7014 15.656V23H77.7014V16.04C77.7014 14.92 77.4374 14.08 76.9094 13.52C76.3814 12.944 75.6294 12.656 74.6534 12.656C73.5494 12.656 72.6774 12.992 72.0374 13.664C71.3974 14.32 71.0774 15.272 71.0774 16.52V23H68.0774V10.184H70.9334V11.84C71.4294 11.248 72.0534 10.8 72.8054 10.496C73.5574 10.192 74.4054 10.04 75.3494 10.04ZM96.2727 10.184L90.7767 23H87.6807L82.1847 10.184H85.3047L89.2887 19.688L93.3927 10.184H96.2727ZM109.844 16.664C109.844 16.872 109.828 17.168 109.796 17.552H99.7401C99.9161 18.496 100.372 19.248 101.108 19.808C101.86 20.352 102.788 20.624 103.892 20.624C105.3 20.624 106.46 20.16 107.372 19.232L108.98 21.08C108.404 21.768 107.676 22.288 106.796 22.64C105.916 22.992 104.924 23.168 103.82 23.168C102.412 23.168 101.172 22.888 100.1 22.328C99.0281 21.768 98.1961 20.992 97.6041 20C97.0281 18.992 96.7401 17.856 96.7401 16.592C96.7401 15.344 97.0201 14.224 97.5801 13.232C98.1561 12.224 98.9481 11.44 99.9561 10.88C100.964 10.32 102.1 10.04 103.364 10.04C104.612 10.04 105.724 10.32 106.7 10.88C107.692 11.424 108.46 12.2 109.004 13.208C109.564 14.2 109.844 15.352 109.844 16.664ZM103.364 12.44C102.404 12.44 101.588 12.728 100.916 13.304C100.26 13.864 99.8601 14.616 99.7161 15.56H106.988C106.86 14.632 106.468 13.88 105.812 13.304C105.156 12.728 104.34 12.44 103.364 12.44ZM116.686 23.168C115.646 23.168 114.63 23.032 113.638 22.76C112.646 22.488 111.854 22.144 111.262 21.728L112.414 19.448C112.99 19.832 113.678 20.144 114.478 20.384C115.294 20.608 116.094 20.72 116.878 20.72C118.67 20.72 119.566 20.248 119.566 19.304C119.566 18.856 119.334 18.544 118.87 18.368C118.422 18.192 117.694 18.024 116.686 17.864C115.63 17.704 114.766 17.52 114.094 17.312C113.438 17.104 112.862 16.744 112.366 16.232C111.886 15.704 111.646 14.976 111.646 14.048C111.646 12.832 112.15 11.864 113.158 11.144C114.182 10.408 115.558 10.04 117.286 10.04C118.166 10.04 119.046 10.144 119.926 10.352C120.806 10.544 121.526 10.808 122.086 11.144L120.934 13.424C119.846 12.784 118.622 12.464 117.262 12.464C116.382 12.464 115.71 12.6 115.246 12.872C114.798 13.128 114.574 13.472 114.574 13.904C114.574 14.384 114.814 14.728 115.294 14.936C115.79 15.128 116.55 15.312 117.574 15.488C118.598 15.648 119.438 15.832 120.094 16.04C120.75 16.248 121.31 16.6 121.774 17.096C122.254 17.592 122.494 18.296 122.494 19.208C122.494 20.408 121.974 21.368 120.934 22.088C119.894 22.808 118.478 23.168 116.686 23.168ZM132.781 22.304C132.429 22.592 131.997 22.808 131.485 22.952C130.989 23.096 130.461 23.168 129.901 23.168C128.493 23.168 127.405 22.8 126.637 22.064C125.869 21.328 125.485 20.256 125.485 18.848V12.68H123.373V10.28H125.485V7.352H128.485V10.28H131.917V12.68H128.485V18.776C128.485 19.4 128.637 19.88 128.941 20.216C129.245 20.536 129.685 20.696 130.261 20.696C130.933 20.696 131.493 20.52 131.941 20.168L132.781 22.304ZM151.425 10.04C153.041 10.04 154.321 10.512 155.265 11.456C156.209 12.384 156.681 13.784 156.681 15.656V23H153.681V16.04C153.681 14.92 153.433 14.08 152.937 13.52C152.441 12.944 151.729 12.656 150.801 12.656C149.793 12.656 148.985 12.992 148.377 13.664C147.769 14.32 147.465 15.264 147.465 16.496V23H144.465V16.04C144.465 14.92 144.217 14.08 143.721 13.52C143.225 12.944 142.513 12.656 141.585 12.656C140.561 12.656 139.745 12.984 139.137 13.64C138.545 14.296 138.249 15.248 138.249 16.496V23H135.249V10.184H138.105V11.816C138.585 11.24 139.185 10.8 139.905 10.496C140.625 10.192 141.425 10.04 142.305 10.04C143.265 10.04 144.113 10.224 144.849 10.592C145.601 10.944 146.193 11.472 146.625 12.176C147.153 11.504 147.833 10.984 148.665 10.616C149.497 10.232 150.417 10.04 151.425 10.04ZM172.68 16.664C172.68 16.872 172.664 17.168 172.632 17.552H162.576C162.752 18.496 163.208 19.248 163.944 19.808C164.696 20.352 165.624 20.624 166.728 20.624C168.136 20.624 169.296 20.16 170.208 19.232L171.816 21.08C171.24 21.768 170.512 22.288 169.632 22.64C168.752 22.992 167.76 23.168 166.656 23.168C165.248 23.168 164.008 22.888 162.936 22.328C161.864 21.768 161.032 20.992 160.44 20C159.864 18.992 159.576 17.856 159.576 16.592C159.576 15.344 159.856 14.224 160.416 13.232C160.992 12.224 161.784 11.44 162.792 10.88C163.8 10.32 164.936 10.04 166.2 10.04C167.448 10.04 168.56 10.32 169.536 10.88C170.528 11.424 171.296 12.2 171.84 13.208C172.4 14.2 172.68 15.352 172.68 16.664ZM166.2 12.44C165.24 12.44 164.424 12.728 163.752 13.304C163.096 13.864 162.696 14.616 162.552 15.56H169.824C169.696 14.632 169.304 13.88 168.648 13.304C167.992 12.728 167.176 12.44 166.2 12.44ZM182.834 10.04C184.45 10.04 185.746 10.512 186.722 11.456C187.698 12.4 188.186 13.8 188.186 15.656V23H185.186V16.04C185.186 14.92 184.922 14.08 184.394 13.52C183.866 12.944 183.114 12.656 182.138 12.656C181.034 12.656 180.162 12.992 179.522 13.664C178.882 14.32 178.562 15.272 178.562 16.52V23H175.562V10.184H178.418V11.84C178.914 11.248 179.538 10.8 180.29 10.496C181.042 10.192 181.89 10.04 182.834 10.04ZM199.695 22.304C199.343 22.592 198.911 22.808 198.399 22.952C197.903 23.096 197.375 23.168 196.815 23.168C195.407 23.168 194.319 22.8 193.551 22.064C192.783 21.328 192.399 20.256 192.399 18.848V12.68H190.287V10.28H192.399V7.352H195.399V10.28H198.831V12.68H195.399V18.776C195.399 19.4 195.551 19.88 195.855 20.216C196.159 20.536 196.599 20.696 197.175 20.696C197.847 20.696 198.407 20.52 198.855 20.168L199.695 22.304ZM206.123 23.168C205.083 23.168 204.067 23.032 203.075 22.76C202.083 22.488 201.291 22.144 200.699 21.728L201.851 19.448C202.427 19.832 203.115 20.144 203.915 20.384C204.731 20.608 205.531 20.72 206.315 20.72C208.107 20.72 209.003 20.248 209.003 19.304C209.003 18.856 208.771 18.544 208.307 18.368C207.859 18.192 207.131 18.024 206.123 17.864C205.067 17.704 204.203 17.52 203.531 17.312C202.875 17.104 202.299 16.744 201.803 16.232C201.323 15.704 201.083 14.976 201.083 14.048C201.083 12.832 201.587 11.864 202.595 11.144C203.619 10.408 204.995 10.04 206.723 10.04C207.603 10.04 208.483 10.144 209.363 10.352C210.243 10.544 210.963 10.808 211.523 11.144L210.371 13.424C209.283 12.784 208.059 12.464 206.699 12.464C205.819 12.464 205.147 12.6 204.683 12.872C204.235 13.128 204.011 13.472 204.011 13.904C204.011 14.384 204.251 14.728 204.731 14.936C205.227 15.128 205.987 15.312 207.011 15.488C208.035 15.648 208.875 15.832 209.531 16.04C210.187 16.248 210.747 16.6 211.211 17.096C211.691 17.592 211.931 18.296 211.931 19.208C211.931 20.408 211.411 21.368 210.371 22.088C209.331 22.808 207.915 23.168 206.123 23.168ZM228.852 22.304C228.5 22.592 228.068 22.808 227.556 22.952C227.06 23.096 226.532 23.168 225.972 23.168C224.564 23.168 223.476 22.8 222.708 22.064C221.94 21.328 221.556 20.256 221.556 18.848V12.68H219.444V10.28H221.556V7.352H224.556V10.28H227.988V12.68H224.556V18.776C224.556 19.4 224.708 19.88 225.012 20.216C225.316 20.536 225.756 20.696 226.332 20.696C227.004 20.696 227.564 20.52 228.012 20.168L228.852 22.304ZM236.658 23.168C235.362 23.168 234.194 22.888 233.154 22.328C232.114 21.768 231.298 20.992 230.706 20C230.13 18.992 229.842 17.856 229.842 16.592C229.842 15.328 230.13 14.2 230.706 13.208C231.298 12.216 232.114 11.44 233.154 10.88C234.194 10.32 235.362 10.04 236.658 10.04C237.97 10.04 239.146 10.32 240.186 10.88C241.226 11.44 242.034 12.216 242.61 13.208C243.202 14.2 243.498 15.328 243.498 16.592C243.498 17.856 243.202 18.992 242.61 20C242.034 20.992 241.226 21.768 240.186 22.328C239.146 22.888 237.97 23.168 236.658 23.168ZM236.658 20.6C237.762 20.6 238.674 20.232 239.394 19.496C240.114 18.76 240.474 17.792 240.474 16.592C240.474 15.392 240.114 14.424 239.394 13.688C238.674 12.952 237.762 12.584 236.658 12.584C235.554 12.584 234.642 12.952 233.922 13.688C233.218 14.424 232.866 15.392 232.866 16.592C232.866 17.792 233.218 18.76 233.922 19.496C234.642 20.232 235.554 20.6 236.658 20.6ZM256.959 23.168C255.919 23.168 254.903 23.032 253.911 22.76C252.919 22.488 252.127 22.144 251.535 21.728L252.687 19.448C253.263 19.832 253.951 20.144 254.751 20.384C255.567 20.608 256.367 20.72 257.151 20.72C258.943 20.72 259.839 20.248 259.839 19.304C259.839 18.856 259.607 18.544 259.143 18.368C258.695 18.192 257.967 18.024 256.959 17.864C255.903 17.704 255.039 17.52 254.367 17.312C253.711 17.104 253.135 16.744 252.639 16.232C252.159 15.704 251.919 14.976 251.919 14.048C251.919 12.832 252.423 11.864 253.431 11.144C254.455 10.408 255.831 10.04 257.559 10.04C258.439 10.04 259.319 10.144 260.199 10.352C261.079 10.544 261.799 10.808 262.359 11.144L261.207 13.424C260.119 12.784 258.895 12.464 257.535 12.464C256.655 12.464 255.983 12.6 255.519 12.872C255.071 13.128 254.847 13.472 254.847 13.904C254.847 14.384 255.087 14.728 255.567 14.936C256.063 15.128 256.823 15.312 257.847 15.488C258.871 15.648 259.711 15.832 260.367 16.04C261.023 16.248 261.583 16.6 262.047 17.096C262.527 17.592 262.767 18.296 262.767 19.208C262.767 20.408 262.247 21.368 261.207 22.088C260.167 22.808 258.751 23.168 256.959 23.168ZM277.399 16.664C277.399 16.872 277.383 17.168 277.351 17.552H267.295C267.471 18.496 267.927 19.248 268.663 19.808C269.415 20.352 270.343 20.624 271.447 20.624C272.855 20.624 274.015 20.16 274.927 19.232L276.535 21.08C275.959 21.768 275.231 22.288 274.351 22.64C273.471 22.992 272.479 23.168 271.375 23.168C269.967 23.168 268.727 22.888 267.655 22.328C266.583 21.768 265.751 20.992 265.159 20C264.583 18.992 264.295 17.856 264.295 16.592C264.295 15.344 264.575 14.224 265.135 13.232C265.711 12.224 266.503 11.44 267.511 10.88C268.519 10.32 269.655 10.04 270.919 10.04C272.167 10.04 273.279 10.32 274.255 10.88C275.247 11.424 276.015 12.2 276.559 13.208C277.119 14.2 277.399 15.352 277.399 16.664ZM270.919 12.44C269.959 12.44 269.143 12.728 268.471 13.304C267.815 13.864 267.415 14.616 267.271 15.56H274.543C274.415 14.632 274.023 13.88 273.367 13.304C272.711 12.728 271.895 12.44 270.919 12.44ZM292.329 16.664C292.329 16.872 292.313 17.168 292.281 17.552H282.225C282.401 18.496 282.857 19.248 283.593 19.808C284.345 20.352 285.273 20.624 286.377 20.624C287.785 20.624 288.945 20.16 289.857 19.232L291.465 21.08C290.889 21.768 290.161 22.288 289.281 22.64C288.401 22.992 287.409 23.168 286.305 23.168C284.897 23.168 283.657 22.888 282.585 22.328C281.513 21.768 280.681 20.992 280.089 20C279.513 18.992 279.225 17.856 279.225 16.592C279.225 15.344 279.505 14.224 280.065 13.232C280.641 12.224 281.433 11.44 282.441 10.88C283.449 10.32 284.585 10.04 285.849 10.04C287.097 10.04 288.209 10.32 289.185 10.88C290.177 11.424 290.945 12.2 291.489 13.208C292.049 14.2 292.329 15.352 292.329 16.664ZM285.849 12.44C284.889 12.44 284.073 12.728 283.401 13.304C282.745 13.864 282.345 14.616 282.201 15.56H289.473C289.345 14.632 288.953 13.88 288.297 13.304C287.641 12.728 286.825 12.44 285.849 12.44ZM309.043 6.2C310.499 6.2 311.763 6.44 312.835 6.92C313.923 7.4 314.755 8.088 315.331 8.984C315.907 9.88 316.195 10.944 316.195 12.176C316.195 13.392 315.907 14.456 315.331 15.368C314.755 16.264 313.923 16.952 312.835 17.432C311.763 17.912 310.499 18.152 309.043 18.152H305.251V23H302.131V6.2H309.043ZM308.899 15.512C310.259 15.512 311.291 15.224 311.995 14.648C312.699 14.072 313.051 13.248 313.051 12.176C313.051 11.104 312.699 10.28 311.995 9.704C311.291 9.128 310.259 8.84 308.899 8.84H305.251V15.512H308.899ZM324.736 23.168C323.44 23.168 322.272 22.888 321.232 22.328C320.192 21.768 319.376 20.992 318.784 20C318.208 18.992 317.92 17.856 317.92 16.592C317.92 15.328 318.208 14.2 318.784 13.208C319.376 12.216 320.192 11.44 321.232 10.88C322.272 10.32 323.44 10.04 324.736 10.04C326.048 10.04 327.224 10.32 328.264 10.88C329.304 11.44 330.112 12.216 330.688 13.208C331.28 14.2 331.576 15.328 331.576 16.592C331.576 17.856 331.28 18.992 330.688 20C330.112 20.992 329.304 21.768 328.264 22.328C327.224 22.888 326.048 23.168 324.736 23.168ZM324.736 20.6C325.84 20.6 326.752 20.232 327.472 19.496C328.192 18.76 328.552 17.792 328.552 16.592C328.552 15.392 328.192 14.424 327.472 13.688C326.752 12.952 325.84 12.584 324.736 12.584C323.632 12.584 322.72 12.952 322 13.688C321.296 14.424 320.944 15.392 320.944 16.592C320.944 17.792 321.296 18.76 322 19.496C322.72 20.232 323.632 20.6 324.736 20.6ZM337.301 12.056C338.165 10.712 339.685 10.04 341.861 10.04V12.896C341.605 12.848 341.373 12.824 341.165 12.824C339.997 12.824 339.085 13.168 338.429 13.856C337.773 14.528 337.445 15.504 337.445 16.784V23H334.445V10.184H337.301V12.056ZM352.578 22.304C352.226 22.592 351.794 22.808 351.282 22.952C350.786 23.096 350.258 23.168 349.698 23.168C348.29 23.168 347.202 22.8 346.434 22.064C345.666 21.328 345.282 20.256 345.282 18.848V12.68H343.17V10.28H345.282V7.352H348.282V10.28H351.714V12.68H348.282V18.776C348.282 19.4 348.434 19.88 348.738 20.216C349.042 20.536 349.482 20.696 350.058 20.696C350.73 20.696 351.29 20.52 351.738 20.168L352.578 22.304ZM360.254 7.448C358.99 7.448 358.358 8.136 358.358 9.512V10.28H361.886V12.68H358.454V23H355.454V12.68H353.342V10.28H355.454V9.464C355.454 8.088 355.854 7.008 356.654 6.224C357.454 5.424 358.582 5.024 360.038 5.024C361.19 5.024 362.094 5.256 362.75 5.72L361.91 7.976C361.398 7.624 360.846 7.448 360.254 7.448ZM369.478 23.168C368.182 23.168 367.014 22.888 365.974 22.328C364.934 21.768 364.118 20.992 363.526 20C362.95 18.992 362.662 17.856 362.662 16.592C362.662 15.328 362.95 14.2 363.526 13.208C364.118 12.216 364.934 11.44 365.974 10.88C367.014 10.32 368.182 10.04 369.478 10.04C370.79 10.04 371.966 10.32 373.006 10.88C374.046 11.44 374.854 12.216 375.43 13.208C376.022 14.2 376.318 15.328 376.318 16.592C376.318 17.856 376.022 18.992 375.43 20C374.854 20.992 374.046 21.768 373.006 22.328C371.966 22.888 370.79 23.168 369.478 23.168ZM369.478 20.6C370.582 20.6 371.494 20.232 372.214 19.496C372.934 18.76 373.294 17.792 373.294 16.592C373.294 15.392 372.934 14.424 372.214 13.688C371.494 12.952 370.582 12.584 369.478 12.584C368.374 12.584 367.462 12.952 366.742 13.688C366.038 14.424 365.686 15.392 365.686 16.592C365.686 17.792 366.038 18.76 366.742 19.496C367.462 20.232 368.374 20.6 369.478 20.6ZM379.187 5.192H382.187V23H379.187V5.192ZM386.124 10.184H389.124V23H386.124V10.184ZM387.636 8.072C387.092 8.072 386.636 7.904 386.268 7.568C385.9 7.216 385.716 6.784 385.716 6.272C385.716 5.76 385.9 5.336 386.268 5C386.636 4.648 387.092 4.472 387.636 4.472C388.18 4.472 388.636 4.64 389.004 4.976C389.372 5.296 389.556 5.704 389.556 6.2C389.556 6.728 389.372 7.176 389.004 7.544C388.652 7.896 388.196 8.072 387.636 8.072ZM398.822 23.168C397.526 23.168 396.358 22.888 395.318 22.328C394.278 21.768 393.462 20.992 392.87 20C392.294 18.992 392.006 17.856 392.006 16.592C392.006 15.328 392.294 14.2 392.87 13.208C393.462 12.216 394.278 11.44 395.318 10.88C396.358 10.32 397.526 10.04 398.822 10.04C400.134 10.04 401.31 10.32 402.35 10.88C403.39 11.44 404.198 12.216 404.774 13.208C405.366 14.2 405.662 15.328 405.662 16.592C405.662 17.856 405.366 18.992 404.774 20C404.198 20.992 403.39 21.768 402.35 22.328C401.31 22.888 400.134 23.168 398.822 23.168ZM398.822 20.6C399.926 20.6 400.838 20.232 401.558 19.496C402.278 18.76 402.638 17.792 402.638 16.592C402.638 15.392 402.278 14.424 401.558 13.688C400.838 12.952 399.926 12.584 398.822 12.584C397.718 12.584 396.806 12.952 396.086 13.688C395.382 14.424 395.03 15.392 395.03 16.592C395.03 17.792 395.382 18.76 396.086 19.496C396.806 20.232 397.718 20.6 398.822 20.6ZM415.451 6.2H422.795C424.587 6.2 426.179 6.552 427.571 7.256C428.963 7.944 430.043 8.928 430.811 10.208C431.579 11.472 431.963 12.936 431.963 14.6C431.963 16.264 431.579 17.736 430.811 19.016C430.043 20.28 428.963 21.264 427.571 21.968C426.179 22.656 424.587 23 422.795 23H415.451V6.2ZM422.651 20.36C423.883 20.36 424.963 20.128 425.891 19.664C426.835 19.184 427.555 18.512 428.051 17.648C428.563 16.768 428.819 15.752 428.819 14.6C428.819 13.448 428.563 12.44 428.051 11.576C427.555 10.696 426.835 10.024 425.891 9.56C424.963 9.08 423.883 8.84 422.651 8.84H418.571V20.36H422.651ZM434.991 10.184H437.991V23H434.991V10.184ZM436.503 8.072C435.959 8.072 435.503 7.904 435.135 7.568C434.767 7.216 434.583 6.784 434.583 6.272C434.583 5.76 434.767 5.336 435.135 5C435.503 4.648 435.959 4.472 436.503 4.472C437.047 4.472 437.503 4.64 437.871 4.976C438.239 5.296 438.423 5.704 438.423 6.2C438.423 6.728 438.239 7.176 437.871 7.544C437.519 7.896 437.063 8.072 436.503 8.072ZM453.929 10.184L448.433 23H445.337L439.841 10.184H442.961L446.945 19.688L451.049 10.184H453.929ZM467.5 16.664C467.5 16.872 467.484 17.168 467.452 17.552H457.396C457.572 18.496 458.028 19.248 458.764 19.808C459.516 20.352 460.444 20.624 461.548 20.624C462.956 20.624 464.116 20.16 465.028 19.232L466.636 21.08C466.06 21.768 465.332 22.288 464.452 22.64C463.572 22.992 462.58 23.168 461.476 23.168C460.068 23.168 458.828 22.888 457.756 22.328C456.684 21.768 455.852 20.992 455.26 20C454.684 18.992 454.396 17.856 454.396 16.592C454.396 15.344 454.676 14.224 455.236 13.232C455.812 12.224 456.604 11.44 457.612 10.88C458.62 10.32 459.756 10.04 461.02 10.04C462.268 10.04 463.38 10.32 464.356 10.88C465.348 11.424 466.116 12.2 466.66 13.208C467.22 14.2 467.5 15.352 467.5 16.664ZM461.02 12.44C460.06 12.44 459.244 12.728 458.572 13.304C457.916 13.864 457.516 14.616 457.372 15.56H464.644C464.516 14.632 464.124 13.88 463.468 13.304C462.812 12.728 461.996 12.44 461.02 12.44ZM473.238 12.056C474.102 10.712 475.622 10.04 477.798 10.04V12.896C477.542 12.848 477.31 12.824 477.102 12.824C475.934 12.824 475.022 13.168 474.366 13.856C473.71 14.528 473.382 15.504 473.382 16.784V23H470.382V10.184H473.238V12.056ZM484.35 23.168C483.31 23.168 482.294 23.032 481.302 22.76C480.31 22.488 479.518 22.144 478.926 21.728L480.078 19.448C480.654 19.832 481.342 20.144 482.142 20.384C482.958 20.608 483.758 20.72 484.542 20.72C486.334 20.72 487.23 20.248 487.23 19.304C487.23 18.856 486.998 18.544 486.534 18.368C486.086 18.192 485.358 18.024 484.35 17.864C483.294 17.704 482.43 17.52 481.758 17.312C481.102 17.104 480.526 16.744 480.03 16.232C479.55 15.704 479.31 14.976 479.31 14.048C479.31 12.832 479.814 11.864 480.822 11.144C481.846 10.408 483.222 10.04 484.95 10.04C485.83 10.04 486.71 10.144 487.59 10.352C488.47 10.544 489.19 10.808 489.75 11.144L488.598 13.424C487.51 12.784 486.286 12.464 484.926 12.464C484.046 12.464 483.374 12.6 482.91 12.872C482.462 13.128 482.238 13.472 482.238 13.904C482.238 14.384 482.478 14.728 482.958 14.936C483.454 15.128 484.214 15.312 485.238 15.488C486.262 15.648 487.102 15.832 487.758 16.04C488.414 16.248 488.974 16.6 489.438 17.096C489.918 17.592 490.158 18.296 490.158 19.208C490.158 20.408 489.638 21.368 488.598 22.088C487.558 22.808 486.142 23.168 484.35 23.168ZM492.741 10.184H495.741V23H492.741V10.184ZM494.253 8.072C493.709 8.072 493.253 7.904 492.885 7.568C492.517 7.216 492.333 6.784 492.333 6.272C492.333 5.76 492.517 5.336 492.885 5C493.253 4.648 493.709 4.472 494.253 4.472C494.797 4.472 495.253 4.64 495.621 4.976C495.989 5.296 496.173 5.704 496.173 6.2C496.173 6.728 495.989 7.176 495.621 7.544C495.269 7.896 494.813 8.072 494.253 8.072ZM504.887 7.448C503.623 7.448 502.991 8.136 502.991 9.512V10.28H506.519V12.68H503.087V23H500.087V12.68H497.975V10.28H500.087V9.464C500.087 8.088 500.487 7.008 501.287 6.224C502.087 5.424 503.215 5.024 504.671 5.024C505.823 5.024 506.727 5.256 507.383 5.72L506.543 7.976C506.031 7.624 505.479 7.448 504.887 7.448ZM510.455 10.184H513.455V23H510.455V10.184ZM511.967 8.072C511.423 8.072 510.967 7.904 510.599 7.568C510.231 7.216 510.047 6.784 510.047 6.272C510.047 5.76 510.231 5.336 510.599 5C510.967 4.648 511.423 4.472 511.967 4.472C512.511 4.472 512.967 4.64 513.335 4.976C513.703 5.296 513.887 5.704 513.887 6.2C513.887 6.728 513.703 7.176 513.335 7.544C512.983 7.896 512.527 8.072 511.967 8.072ZM523.278 23.168C521.95 23.168 520.758 22.888 519.702 22.328C518.646 21.768 517.822 20.992 517.23 20C516.638 18.992 516.342 17.856 516.342 16.592C516.342 15.328 516.638 14.2 517.23 13.208C517.822 12.216 518.638 11.44 519.678 10.88C520.734 10.32 521.934 10.04 523.278 10.04C524.542 10.04 525.646 10.296 526.59 10.808C527.55 11.32 528.27 12.056 528.75 13.016L526.446 14.36C526.078 13.768 525.614 13.328 525.054 13.04C524.51 12.736 523.91 12.584 523.254 12.584C522.134 12.584 521.206 12.952 520.47 13.688C519.734 14.408 519.366 15.376 519.366 16.592C519.366 17.808 519.726 18.784 520.446 19.52C521.182 20.24 522.118 20.6 523.254 20.6C523.91 20.6 524.51 20.456 525.054 20.168C525.614 19.864 526.078 19.416 526.446 18.824L528.75 20.168C528.254 21.128 527.526 21.872 526.566 22.4C525.622 22.912 524.526 23.168 523.278 23.168ZM536.239 10.04C538.127 10.04 539.567 10.496 540.559 11.408C541.567 12.304 542.071 13.664 542.071 15.488V23H539.239V21.44C538.871 22 538.343 22.432 537.655 22.736C536.983 23.024 536.167 23.168 535.207 23.168C534.247 23.168 533.407 23.008 532.687 22.688C531.967 22.352 531.407 21.896 531.007 21.32C530.623 20.728 530.431 20.064 530.431 19.328C530.431 18.176 530.855 17.256 531.703 16.568C532.567 15.864 533.919 15.512 535.759 15.512H539.071V15.32C539.071 14.424 538.799 13.736 538.255 13.256C537.727 12.776 536.935 12.536 535.879 12.536C535.159 12.536 534.447 12.648 533.743 12.872C533.055 13.096 532.471 13.408 531.991 13.808L530.815 11.624C531.487 11.112 532.295 10.72 533.239 10.448C534.183 10.176 535.183 10.04 536.239 10.04ZM535.831 20.984C536.583 20.984 537.247 20.816 537.823 20.48C538.415 20.128 538.831 19.632 539.071 18.992V17.504H535.975C534.247 17.504 533.383 18.072 533.383 19.208C533.383 19.752 533.599 20.184 534.031 20.504C534.463 20.824 535.063 20.984 535.831 20.984ZM553.625 22.304C553.273 22.592 552.841 22.808 552.329 22.952C551.833 23.096 551.305 23.168 550.745 23.168C549.337 23.168 548.249 22.8 547.481 22.064C546.713 21.328 546.329 20.256 546.329 18.848V12.68H544.217V10.28H546.329V7.352H549.329V10.28H552.761V12.68H549.329V18.776C549.329 19.4 549.481 19.88 549.785 20.216C550.089 20.536 550.529 20.696 551.105 20.696C551.777 20.696 552.337 20.52 552.785 20.168L553.625 22.304ZM556.093 10.184H559.093V23H556.093V10.184ZM557.605 8.072C557.061 8.072 556.605 7.904 556.237 7.568C555.869 7.216 555.685 6.784 555.685 6.272C555.685 5.76 555.869 5.336 556.237 5C556.605 4.648 557.061 4.472 557.605 4.472C558.149 4.472 558.605 4.64 558.973 4.976C559.341 5.296 559.525 5.704 559.525 6.2C559.525 6.728 559.341 7.176 558.973 7.544C558.621 7.896 558.165 8.072 557.605 8.072ZM568.791 23.168C567.495 23.168 566.327 22.888 565.287 22.328C564.247 21.768 563.431 20.992 562.839 20C562.263 18.992 561.975 17.856 561.975 16.592C561.975 15.328 562.263 14.2 562.839 13.208C563.431 12.216 564.247 11.44 565.287 10.88C566.327 10.32 567.495 10.04 568.791 10.04C570.103 10.04 571.279 10.32 572.319 10.88C573.359 11.44 574.167 12.216 574.743 13.208C575.335 14.2 575.631 15.328 575.631 16.592C575.631 17.856 575.335 18.992 574.743 20C574.167 20.992 573.359 21.768 572.319 22.328C571.279 22.888 570.103 23.168 568.791 23.168ZM568.791 20.6C569.895 20.6 570.807 20.232 571.527 19.496C572.247 18.76 572.607 17.792 572.607 16.592C572.607 15.392 572.247 14.424 571.527 13.688C570.807 12.952 569.895 12.584 568.791 12.584C567.687 12.584 566.775 12.952 566.055 13.688C565.351 14.424 564.999 15.392 564.999 16.592C564.999 17.792 565.351 18.76 566.055 19.496C566.775 20.232 567.687 20.6 568.791 20.6ZM585.771 10.04C587.387 10.04 588.683 10.512 589.659 11.456C590.635 12.4 591.123 13.8 591.123 15.656V23H588.123V16.04C588.123 14.92 587.859 14.08 587.331 13.52C586.803 12.944 586.051 12.656 585.075 12.656C583.971 12.656 583.099 12.992 582.459 13.664C581.819 14.32 581.499 15.272 581.499 16.52V23H578.499V10.184H581.355V11.84C581.851 11.248 582.475 10.8 583.227 10.496C583.979 10.192 584.827 10.04 585.771 10.04Z" fill="black"/>
<defs>
<clipPath id="clip0">
<rect width="400" height="242.74" fill="white" transform="translate(119 63)"/>
</clipPath>
</defs>
</svg>
