<svg width="283" height="276" viewBox="0 0 283 276" fill="none" xmlns="http://www.w3.org/2000/svg">
<g clip-path="url(#clip0)">
<path d="M179.432 62.0464H103.272C101.537 62.0485 99.8729 62.7389 98.6457 63.9661C97.4185 65.1933 96.7282 66.8571 96.726 68.5926V237.855L95.8532 238.121L77.1701 243.843C76.2847 244.113 75.3283 244.02 74.5109 243.586C73.6936 243.151 73.082 242.41 72.8104 241.525L17.2368 59.9997C16.9664 59.1142 17.0585 58.1576 17.4931 57.3401C17.9276 56.5226 18.669 55.9111 19.5542 55.6399L48.3448 46.8244L131.81 21.2768L160.6 12.4613C161.038 12.3264 161.499 12.2793 161.955 12.3226C162.411 12.3659 162.855 12.4988 163.26 12.7136C163.665 12.9284 164.023 13.221 164.315 13.5746C164.607 13.9282 164.826 14.3359 164.96 14.7742L179.165 61.1736L179.432 62.0464Z" fill="#F2F2F2"/>
<path d="M196.052 61.1773L178.931 5.25626C178.646 4.32451 178.181 3.45802 177.561 2.7063C176.941 1.95458 176.179 1.33237 175.319 0.875214C174.458 0.418061 173.516 0.134923 172.546 0.0419906C171.576 -0.0509414 170.598 0.0481534 169.666 0.333602L129.189 12.7232L45.7292 38.2747L5.25182 50.6686C3.37146 51.246 1.79701 52.5459 0.874053 54.2829C-0.0489002 56.0199 -0.244948 58.0521 0.328949 59.9335L58.8433 251.049C59.3095 252.567 60.2502 253.897 61.5273 254.841C62.8045 255.786 64.3508 256.297 65.9395 256.299C66.6748 256.299 67.4059 256.189 68.1083 255.971L95.8555 247.479L96.7283 247.208V246.296L95.8555 246.562L67.8509 255.138C66.1912 255.644 64.3985 255.471 62.8661 254.657C61.3337 253.843 60.1868 252.454 59.6769 250.795L1.16704 59.676C0.914398 58.8542 0.826345 57.9907 0.907921 57.1348C0.989498 56.2789 1.2391 55.4476 1.64244 54.6883C2.04578 53.9291 2.59494 53.2568 3.25846 52.7101C3.92199 52.1633 4.68684 51.7529 5.50923 51.5021L45.9866 39.1082L129.446 13.5611L169.924 1.16715C170.547 0.976785 171.196 0.879724 171.848 0.879116C173.248 0.882258 174.61 1.33348 175.734 2.1667C176.859 2.99991 177.687 4.17133 178.098 5.50938L195.14 61.1773L195.41 62.0501H196.318L196.052 61.1773Z" fill="#3F3D56"/>
<path d="M53.5403 55.7826C52.6992 55.782 51.8804 55.5119 51.204 55.0118C50.5276 54.5118 50.0293 53.8081 49.7822 53.0041L44.1609 34.6435C44.0099 34.1503 43.9575 33.6321 44.0067 33.1187C44.0559 32.6052 44.2058 32.1065 44.4478 31.651C44.6898 31.1954 45.0191 30.7921 45.4171 30.4638C45.815 30.1356 46.2736 29.889 46.7669 29.7381L123.55 6.23124C124.546 5.92729 125.622 6.03096 126.542 6.51948C127.461 7.008 128.15 7.84146 128.456 8.83693L134.077 27.1978C134.381 28.1939 134.277 29.2697 133.788 30.1894C133.3 31.1091 132.467 31.7974 131.471 32.1034L54.6878 55.6102C54.316 55.7243 53.9293 55.7824 53.5403 55.7826Z" fill="#6C63FF"/>
<path d="M82.9862 19.6187C87.8068 19.6187 91.7146 15.711 91.7146 10.8905C91.7146 6.07 87.8068 2.16223 82.9862 2.16223C78.1656 2.16223 74.2578 6.07 74.2578 10.8905C74.2578 15.711 78.1656 19.6187 82.9862 19.6187Z" fill="#6C63FF"/>
<path d="M82.9866 16.4175C86.0391 16.4175 88.5136 13.943 88.5136 10.8905C88.5136 7.83805 86.0391 5.36353 82.9866 5.36353C79.934 5.36353 77.4595 7.83805 77.4595 10.8905C77.4595 13.943 79.934 16.4175 82.9866 16.4175Z" fill="white"/>
<path d="M263.001 254.068H115.492C114.509 254.067 113.566 253.675 112.87 252.98C112.175 252.285 111.784 251.342 111.783 250.358V73.6111C111.784 72.6276 112.175 71.6847 112.87 70.9893C113.566 70.2939 114.509 69.9027 115.492 69.9016H263.001C263.985 69.9027 264.928 70.2939 265.623 70.9894C266.318 71.6848 266.71 72.6276 266.711 73.6111V250.358C266.71 251.342 266.318 252.285 265.623 252.98C264.928 253.675 263.985 254.067 263.001 254.068Z" fill="#E6E6E6"/>
<path d="M195.138 61.1736H103.272C101.305 61.1764 99.4199 61.9589 98.0291 63.3496C96.6384 64.7404 95.8558 66.6258 95.853 68.5926V246.561L96.7259 246.295V68.5926C96.728 66.8571 97.4183 65.1933 98.6456 63.9661C99.8728 62.7389 101.537 62.0485 103.272 62.0464H195.409L195.138 61.1736ZM275.221 61.1736H103.272C101.305 61.1764 99.4199 61.9589 98.0291 63.3496C96.6384 64.7404 95.8558 66.6258 95.853 68.5926V268.469C95.8558 270.436 96.6384 272.321 98.0291 273.712C99.4199 275.103 101.305 275.885 103.272 275.888H275.221C277.188 275.885 279.073 275.103 280.464 273.712C281.855 272.321 282.637 270.436 282.64 268.469V68.5926C282.637 66.6258 281.855 64.7404 280.464 63.3496C279.073 61.9589 277.188 61.1764 275.221 61.1736ZM281.767 268.469C281.765 270.205 281.075 271.868 279.847 273.096C278.62 274.323 276.956 275.013 275.221 275.015H103.272C101.537 275.013 99.8728 274.323 98.6456 273.096C97.4183 271.868 96.728 270.205 96.7259 268.469V68.5926C96.728 66.8571 97.4183 65.1933 98.6456 63.9661C99.8728 62.7389 101.537 62.0485 103.272 62.0464H275.221C276.956 62.0485 278.62 62.7389 279.847 63.9661C281.075 65.1933 281.765 66.8571 281.767 68.5926V268.469Z" fill="#3F3D56"/>
<path d="M229.397 80.3756H149.096C148.055 80.3744 147.056 79.9602 146.32 79.2239C145.584 78.4876 145.17 77.4892 145.168 76.4479V57.2458C145.17 56.2045 145.584 55.2061 146.32 54.4698C147.057 53.7335 148.055 53.3193 149.096 53.3181H229.397C230.438 53.3193 231.437 53.7335 232.173 54.4698C232.909 55.2061 233.324 56.2045 233.325 57.2458V76.4479C233.324 77.4892 232.909 78.4876 232.173 79.2239C231.437 79.9602 230.438 80.3744 229.397 80.3756Z" fill="#6C63FF"/>
<path d="M189.247 54.6274C194.068 54.6274 197.975 50.7196 197.975 45.8991C197.975 41.0786 194.068 37.1708 189.247 37.1708C184.426 37.1708 180.519 41.0786 180.519 45.8991C180.519 50.7196 184.426 54.6274 189.247 54.6274Z" fill="#6C63FF"/>
<path d="M189.247 51.2154C192.183 51.2154 194.563 48.8352 194.563 45.8991C194.563 42.963 192.183 40.5828 189.247 40.5828C186.31 40.5828 183.93 42.963 183.93 45.8991C183.93 48.8352 186.31 51.2154 189.247 51.2154Z" fill="white"/>
<path d="M138.227 157.307V162H135.757V157.345L130.532 148.7H133.173L137.068 155.179L141.001 148.7H143.433L138.227 157.307ZM148.25 162.133C147.224 162.133 146.3 161.911 145.476 161.468C144.653 161.025 144.007 160.41 143.538 159.625C143.082 158.827 142.854 157.928 142.854 156.927C142.854 155.926 143.082 155.033 143.538 154.248C144.007 153.463 144.653 152.848 145.476 152.405C146.3 151.962 147.224 151.74 148.25 151.74C149.289 151.74 150.22 151.962 151.043 152.405C151.867 152.848 152.506 153.463 152.962 154.248C153.431 155.033 153.665 155.926 153.665 156.927C153.665 157.928 153.431 158.827 152.962 159.625C152.506 160.41 151.867 161.025 151.043 161.468C150.22 161.911 149.289 162.133 148.25 162.133ZM148.25 160.1C149.124 160.1 149.846 159.809 150.416 159.226C150.986 158.643 151.271 157.877 151.271 156.927C151.271 155.977 150.986 155.211 150.416 154.628C149.846 154.045 149.124 153.754 148.25 153.754C147.376 153.754 146.654 154.045 146.084 154.628C145.527 155.211 145.248 155.977 145.248 156.927C145.248 157.877 145.527 158.643 146.084 159.226C146.654 159.809 147.376 160.1 148.25 160.1ZM165.759 151.854V162H163.498V160.708C163.118 161.164 162.643 161.519 162.073 161.772C161.503 162.013 160.889 162.133 160.23 162.133C158.875 162.133 157.805 161.759 157.019 161.012C156.247 160.252 155.86 159.131 155.86 157.649V151.854H158.235V157.326C158.235 158.238 158.438 158.922 158.843 159.378C159.261 159.821 159.85 160.043 160.61 160.043C161.459 160.043 162.13 159.783 162.624 159.264C163.131 158.732 163.384 157.972 163.384 156.984V151.854H165.759ZM179.877 151.74C181.156 151.74 182.182 152.114 182.955 152.861C183.728 153.608 184.114 154.717 184.114 156.186V162H181.739V156.49C181.739 155.603 181.53 154.938 181.112 154.495C180.694 154.039 180.099 153.811 179.326 153.811C178.452 153.811 177.762 154.077 177.255 154.609C176.748 155.128 176.495 155.882 176.495 156.87V162H174.12V147.902H176.495V153.032C176.888 152.614 177.369 152.297 177.939 152.082C178.522 151.854 179.168 151.74 179.877 151.74ZM191.003 151.74C192.498 151.74 193.638 152.101 194.423 152.823C195.221 153.532 195.62 154.609 195.62 156.053V162H193.378V160.765C193.087 161.208 192.669 161.55 192.124 161.791C191.592 162.019 190.946 162.133 190.186 162.133C189.426 162.133 188.761 162.006 188.191 161.753C187.621 161.487 187.178 161.126 186.861 160.67C186.557 160.201 186.405 159.676 186.405 159.093C186.405 158.181 186.741 157.453 187.412 156.908C188.096 156.351 189.166 156.072 190.623 156.072H193.245V155.92C193.245 155.211 193.03 154.666 192.599 154.286C192.181 153.906 191.554 153.716 190.718 153.716C190.148 153.716 189.584 153.805 189.027 153.982C188.482 154.159 188.02 154.406 187.64 154.723L186.709 152.994C187.241 152.589 187.881 152.278 188.628 152.063C189.375 151.848 190.167 151.74 191.003 151.74ZM190.68 160.404C191.275 160.404 191.801 160.271 192.257 160.005C192.726 159.726 193.055 159.334 193.245 158.827V157.649H190.794C189.426 157.649 188.742 158.099 188.742 158.998C188.742 159.429 188.913 159.771 189.255 160.024C189.597 160.277 190.072 160.404 190.68 160.404ZM207.982 151.854L203.631 162H201.18L196.829 151.854H199.299L202.453 159.378L205.702 151.854H207.982ZM218.726 156.984C218.726 157.149 218.714 157.383 218.688 157.687H210.727C210.867 158.434 211.228 159.03 211.81 159.473C212.406 159.904 213.14 160.119 214.014 160.119C215.129 160.119 216.047 159.752 216.769 159.017L218.042 160.48C217.586 161.025 217.01 161.436 216.313 161.715C215.617 161.994 214.831 162.133 213.957 162.133C212.843 162.133 211.861 161.911 211.012 161.468C210.164 161.025 209.505 160.41 209.036 159.625C208.58 158.827 208.352 157.928 208.352 156.927C208.352 155.939 208.574 155.052 209.017 154.267C209.473 153.469 210.1 152.848 210.898 152.405C211.696 151.962 212.596 151.74 213.596 151.74C214.584 151.74 215.465 151.962 216.237 152.405C217.023 152.836 217.631 153.45 218.061 154.248C218.505 155.033 218.726 155.945 218.726 156.984ZM213.596 153.64C212.836 153.64 212.19 153.868 211.658 154.324C211.139 154.767 210.822 155.363 210.708 156.11H216.465C216.364 155.375 216.054 154.78 215.534 154.324C215.015 153.868 214.369 153.64 213.596 153.64ZM232.016 151.74C233.295 151.74 234.321 152.114 235.094 152.861C235.866 153.608 236.253 154.717 236.253 156.186V162H233.878V156.49C233.878 155.603 233.669 154.938 233.251 154.495C232.833 154.039 232.237 153.811 231.465 153.811C230.591 153.811 229.9 154.077 229.394 154.609C228.887 155.128 228.634 155.882 228.634 156.87V162H226.259V151.854H228.52V153.165C228.912 152.696 229.406 152.342 230.002 152.101C230.597 151.86 231.268 151.74 232.016 151.74ZM243.918 162.133C242.892 162.133 241.968 161.911 241.144 161.468C240.321 161.025 239.675 160.41 239.206 159.625C238.75 158.827 238.522 157.928 238.522 156.927C238.522 155.926 238.75 155.033 239.206 154.248C239.675 153.463 240.321 152.848 241.144 152.405C241.968 151.962 242.892 151.74 243.918 151.74C244.957 151.74 245.888 151.962 246.711 152.405C247.535 152.848 248.174 153.463 248.63 154.248C249.099 155.033 249.333 155.926 249.333 156.927C249.333 157.928 249.099 158.827 248.63 159.625C248.174 160.41 247.535 161.025 246.711 161.468C245.888 161.911 244.957 162.133 243.918 162.133ZM243.918 160.1C244.792 160.1 245.514 159.809 246.084 159.226C246.654 158.643 246.939 157.877 246.939 156.927C246.939 155.977 246.654 155.211 246.084 154.628C245.514 154.045 244.792 153.754 243.918 153.754C243.044 153.754 242.322 154.045 241.752 154.628C241.195 155.211 240.916 155.977 240.916 156.927C240.916 157.877 241.195 158.643 241.752 159.226C242.322 159.809 243.044 160.1 243.918 160.1ZM131.468 171.7H133.938V185H131.468V171.7ZM143.065 174.74C144.344 174.74 145.37 175.114 146.143 175.861C146.915 176.608 147.302 177.717 147.302 179.186V185H144.927V179.49C144.927 178.603 144.718 177.938 144.3 177.495C143.882 177.039 143.286 176.811 142.514 176.811C141.64 176.811 140.949 177.077 140.443 177.609C139.936 178.128 139.683 178.882 139.683 179.87V185H137.308V174.854H139.569V176.165C139.961 175.696 140.455 175.342 141.051 175.101C141.646 174.86 142.317 174.74 143.065 174.74ZM159.629 174.854L155.278 185H152.827L148.476 174.854H150.946L154.1 182.378L157.349 174.854H159.629ZM170.373 179.984C170.373 180.149 170.36 180.383 170.335 180.687H162.374C162.513 181.434 162.874 182.03 163.457 182.473C164.052 182.904 164.787 183.119 165.661 183.119C166.776 183.119 167.694 182.752 168.416 182.017L169.689 183.48C169.233 184.025 168.657 184.436 167.96 184.715C167.263 184.994 166.478 185.133 165.604 185.133C164.489 185.133 163.508 184.911 162.659 184.468C161.81 184.025 161.152 183.41 160.683 182.625C160.227 181.827 159.999 180.928 159.999 179.927C159.999 178.939 160.221 178.052 160.664 177.267C161.12 176.469 161.747 175.848 162.545 175.405C163.343 174.962 164.242 174.74 165.243 174.74C166.231 174.74 167.111 174.962 167.884 175.405C168.669 175.836 169.277 176.45 169.708 177.248C170.151 178.033 170.373 178.945 170.373 179.984ZM165.243 176.64C164.483 176.64 163.837 176.868 163.305 177.324C162.786 177.767 162.469 178.363 162.355 179.11H168.112C168.011 178.375 167.7 177.78 167.181 177.324C166.662 176.868 166.016 176.64 165.243 176.64ZM175.789 185.133C174.966 185.133 174.162 185.025 173.376 184.81C172.591 184.595 171.964 184.322 171.495 183.993L172.407 182.188C172.863 182.492 173.408 182.739 174.041 182.929C174.687 183.106 175.321 183.195 175.941 183.195C177.36 183.195 178.069 182.821 178.069 182.074C178.069 181.719 177.886 181.472 177.518 181.333C177.164 181.194 176.587 181.061 175.789 180.934C174.953 180.807 174.269 180.662 173.737 180.497C173.218 180.332 172.762 180.047 172.369 179.642C171.989 179.224 171.799 178.648 171.799 177.913C171.799 176.95 172.198 176.184 172.996 175.614C173.807 175.031 174.896 174.74 176.264 174.74C176.961 174.74 177.658 174.822 178.354 174.987C179.051 175.139 179.621 175.348 180.064 175.614L179.152 177.419C178.291 176.912 177.322 176.659 176.245 176.659C175.549 176.659 175.017 176.767 174.649 176.982C174.295 177.185 174.117 177.457 174.117 177.799C174.117 178.179 174.307 178.451 174.687 178.616C175.08 178.768 175.682 178.914 176.492 179.053C177.303 179.18 177.968 179.325 178.487 179.49C179.007 179.655 179.45 179.933 179.817 180.326C180.197 180.719 180.387 181.276 180.387 181.998C180.387 182.948 179.976 183.708 179.152 184.278C178.329 184.848 177.208 185.133 175.789 185.133ZM188.532 184.449C188.253 184.677 187.911 184.848 187.506 184.962C187.113 185.076 186.695 185.133 186.252 185.133C185.137 185.133 184.276 184.842 183.668 184.259C183.06 183.676 182.756 182.828 182.756 181.713V176.83H181.084V174.93H182.756V172.612H185.131V174.93H187.848V176.83H185.131V181.656C185.131 182.15 185.251 182.53 185.492 182.796C185.732 183.049 186.081 183.176 186.537 183.176C187.069 183.176 187.512 183.037 187.867 182.758L188.532 184.449ZM203.291 174.74C204.571 174.74 205.584 175.114 206.331 175.861C207.079 176.596 207.452 177.704 207.452 179.186V185H205.077V179.49C205.077 178.603 204.881 177.938 204.488 177.495C204.096 177.039 203.532 176.811 202.797 176.811C201.999 176.811 201.36 177.077 200.878 177.609C200.397 178.128 200.156 178.876 200.156 179.851V185H197.781V179.49C197.781 178.603 197.585 177.938 197.192 177.495C196.8 177.039 196.236 176.811 195.501 176.811C194.691 176.811 194.045 177.071 193.563 177.59C193.095 178.109 192.86 178.863 192.86 179.851V185H190.485V174.854H192.746V176.146C193.126 175.69 193.601 175.342 194.171 175.101C194.741 174.86 195.375 174.74 196.071 174.74C196.831 174.74 197.503 174.886 198.085 175.177C198.681 175.456 199.149 175.874 199.491 176.431C199.909 175.899 200.448 175.487 201.106 175.196C201.765 174.892 202.493 174.74 203.291 174.74ZM220.118 179.984C220.118 180.149 220.105 180.383 220.08 180.687H212.119C212.258 181.434 212.619 182.03 213.202 182.473C213.797 182.904 214.532 183.119 215.406 183.119C216.521 183.119 217.439 182.752 218.161 182.017L219.434 183.48C218.978 184.025 218.402 184.436 217.705 184.715C217.008 184.994 216.223 185.133 215.349 185.133C214.234 185.133 213.253 184.911 212.404 184.468C211.555 184.025 210.897 183.41 210.428 182.625C209.972 181.827 209.744 180.928 209.744 179.927C209.744 178.939 209.966 178.052 210.409 177.267C210.865 176.469 211.492 175.848 212.29 175.405C213.088 174.962 213.987 174.74 214.988 174.74C215.976 174.74 216.856 174.962 217.629 175.405C218.414 175.836 219.022 176.45 219.453 177.248C219.896 178.033 220.118 178.945 220.118 179.984ZM214.988 176.64C214.228 176.64 213.582 176.868 213.05 177.324C212.531 177.767 212.214 178.363 212.1 179.11H217.857C217.756 178.375 217.445 177.78 216.926 177.324C216.407 176.868 215.761 176.64 214.988 176.64ZM228.156 174.74C229.436 174.74 230.462 175.114 231.234 175.861C232.007 176.608 232.393 177.717 232.393 179.186V185H230.018V179.49C230.018 178.603 229.809 177.938 229.391 177.495C228.973 177.039 228.378 176.811 227.605 176.811C226.731 176.811 226.041 177.077 225.534 177.609C225.028 178.128 224.774 178.882 224.774 179.87V185H222.399V174.854H224.66V176.165C225.053 175.696 225.547 175.342 226.142 175.101C226.738 174.86 227.409 174.74 228.156 174.74ZM241.505 184.449C241.226 184.677 240.884 184.848 240.479 184.962C240.086 185.076 239.668 185.133 239.225 185.133C238.11 185.133 237.249 184.842 236.641 184.259C236.033 183.676 235.729 182.828 235.729 181.713V176.83H234.057V174.93H235.729V172.612H238.104V174.93H240.821V176.83H238.104V181.656C238.104 182.15 238.224 182.53 238.465 182.796C238.706 183.049 239.054 183.176 239.51 183.176C240.042 183.176 240.485 183.037 240.84 182.758L241.505 184.449ZM246.594 185.133C245.771 185.133 244.966 185.025 244.181 184.81C243.396 184.595 242.769 184.322 242.3 183.993L243.212 182.188C243.668 182.492 244.213 182.739 244.846 182.929C245.492 183.106 246.125 183.195 246.746 183.195C248.165 183.195 248.874 182.821 248.874 182.074C248.874 181.719 248.69 181.472 248.323 181.333C247.968 181.194 247.392 181.061 246.594 180.934C245.758 180.807 245.074 180.662 244.542 180.497C244.023 180.332 243.567 180.047 243.174 179.642C242.794 179.224 242.604 178.648 242.604 177.913C242.604 176.95 243.003 176.184 243.801 175.614C244.612 175.031 245.701 174.74 247.069 174.74C247.766 174.74 248.462 174.822 249.159 174.987C249.856 175.139 250.426 175.348 250.869 175.614L249.957 177.419C249.096 176.912 248.127 176.659 247.05 176.659C246.353 176.659 245.821 176.767 245.454 176.982C245.099 177.185 244.922 177.457 244.922 177.799C244.922 178.179 245.112 178.451 245.492 178.616C245.885 178.768 246.486 178.914 247.297 179.053C248.108 179.18 248.773 179.325 249.292 179.49C249.811 179.655 250.255 179.933 250.622 180.326C251.002 180.719 251.192 181.276 251.192 181.998C251.192 182.948 250.78 183.708 249.957 184.278C249.134 184.848 248.013 185.133 246.594 185.133ZM253.997 185.133C253.567 185.133 253.199 184.987 252.895 184.696C252.591 184.392 252.439 184.012 252.439 183.556C252.439 183.087 252.585 182.707 252.876 182.416C253.18 182.125 253.554 181.979 253.997 181.979C254.441 181.979 254.808 182.125 255.099 182.416C255.403 182.707 255.555 183.087 255.555 183.556C255.555 184.012 255.403 184.392 255.099 184.696C254.795 184.987 254.428 185.133 253.997 185.133Z" fill="black"/>
</g>
<defs>
<clipPath id="clip0">
<rect width="282.64" height="275.888" fill="white"/>
</clipPath>
</defs>
</svg>
